<?xml version="1.0" encoding="UTF-8" standalone="no"?><!-- Generator: Gravit.io --><svg xmlns="http://www.w3.org/2000/svg" xmlns:xlink="http://www.w3.org/1999/xlink" style="isolation:isolate" viewBox="555 314 1400 900" width="1400pt" height="900pt"><rect x="555" y="314" width="1400" height="900" transform="matrix(1,0,0,1,0,0)" fill="rgb(231,234,233)"/><clipPath id="_clipPath_4ZDZ79vt0SDT4K1nL2F8PNkDdV4DRZV8"><rect x="555" y="314" width="1400" height="900" transform="matrix(1,0,0,1,0,0)" fill="rgb(231,234,233)"/></clipPath><g clip-path="url(#_clipPath_4ZDZ79vt0SDT4K1nL2F8PNkDdV4DRZV8)"><g><g><path d=" M 603.317 1056.796 C 558.726 1101.386 607.933 1076.839 598.464 1138.321 C 598.464 1154.119 582.127 1150.776 565.466 1167.437 C 538.021 1194.881 573.23 1217.419 573.23 1194.612 C 573.23 1183.208 581.399 1181.024 593.611 1181.024 C 604.449 1181.024 616.904 1171.319 616.904 1158.702 C 616.904 1141.96 621.433 1138.644 634.374 1125.704 C 649.093 1110.984 637.447 1101.44 626.609 1101.44 C 610.757 1101.44 611.568 1083.297 626.609 1068.442 C 659.985 1035.066 622.727 1028.596 622.727 1043.208 C 622.727 1054.477 612.779 1047.333 603.317 1056.796 Z " fill="none" vector-effect="non-scaling-stroke" stroke-width="10" stroke="rgb(255,255,255)" stroke-linejoin="miter" stroke-linecap="square" stroke-miterlimit="3"/><path d=" M 697.317 939.957 C 652.726 984.547 701.933 960 692.464 1021.482 C 692.464 1037.28 676.127 1033.937 659.466 1050.598 C 632.021 1078.042 667.23 1100.58 667.23 1077.773 C 667.23 1066.369 675.399 1064.185 687.611 1064.185 C 698.449 1064.185 710.904 1054.48 710.904 1041.863 C 710.904 1025.121 715.433 1021.805 728.374 1008.865 C 743.093 994.145 731.447 984.601 720.609 984.601 C 704.757 984.601 705.568 966.458 720.609 951.603 C 753.985 918.227 716.727 911.757 716.727 926.369 C 716.727 937.638 706.779 930.494 697.317 939.957 Z " fill="none" vector-effect="non-scaling-stroke" stroke-width="10" stroke="rgb(255,255,255)" stroke-linejoin="miter" stroke-linecap="square" stroke-miterlimit="3"/><path d=" M 796.004 824.796 C 751.413 869.386 800.62 844.839 791.152 906.321 C 791.152 922.119 774.814 918.776 758.153 935.437 C 730.709 962.881 765.918 985.419 765.918 962.612 C 765.918 951.208 774.086 949.024 786.299 949.024 C 797.136 949.024 809.592 939.319 809.592 926.702 C 809.592 909.96 814.121 906.644 827.061 893.704 C 841.781 878.984 830.135 869.44 819.297 869.44 C 803.445 869.44 804.255 851.297 819.297 836.442 C 852.673 803.066 815.415 796.596 815.415 811.208 C 815.415 822.477 805.467 815.333 796.004 824.796 Z " fill="none" vector-effect="non-scaling-stroke" stroke-width="10" stroke="rgb(255,255,255)" stroke-linejoin="miter" stroke-linecap="square" stroke-miterlimit="3"/></g><g><path d=" M 626.317 1177.957 C 581.726 1222.547 630.933 1198 621.464 1259.482 C 621.464 1275.28 605.127 1271.937 588.466 1288.598 C 561.021 1316.042 596.23 1338.58 596.23 1315.773 C 596.23 1304.369 604.399 1302.185 616.611 1302.185 C 627.449 1302.185 639.904 1292.48 639.904 1279.863 C 639.904 1263.121 644.433 1259.805 657.374 1246.865 C 672.093 1232.145 660.447 1222.601 649.609 1222.601 C 633.757 1222.601 634.568 1204.458 649.609 1189.603 C 682.985 1156.227 645.727 1149.757 645.727 1164.369 C 645.727 1175.638 635.779 1168.494 626.317 1177.957 Z " fill="none" vector-effect="non-scaling-stroke" stroke-width="10" stroke="rgb(255,255,255)" stroke-linejoin="miter" stroke-linecap="square" stroke-miterlimit="3"/><path d=" M 720.317 1061.118 C 675.726 1105.708 724.933 1081.161 715.464 1142.643 C 715.464 1158.441 699.126 1155.098 682.466 1171.759 C 655.021 1199.203 690.23 1221.741 690.23 1198.934 C 690.23 1187.53 698.399 1185.346 710.611 1185.346 C 721.449 1185.346 733.904 1175.641 733.904 1163.024 C 733.904 1146.282 738.433 1142.966 751.374 1130.026 C 766.093 1115.306 754.447 1105.762 743.609 1105.762 C 727.757 1105.762 728.568 1087.619 743.609 1072.764 C 776.985 1039.388 739.727 1032.918 739.727 1047.53 C 739.727 1058.799 729.779 1051.655 720.317 1061.118 Z " fill="none" vector-effect="non-scaling-stroke" stroke-width="10" stroke="rgb(255,255,255)" stroke-linejoin="miter" stroke-linecap="square" stroke-miterlimit="3"/><path d=" M 819.004 945.957 C 774.413 990.547 823.62 966 814.152 1027.482 C 814.152 1043.28 797.814 1039.937 781.153 1056.598 C 753.709 1084.042 788.918 1106.58 788.918 1083.773 C 788.918 1072.369 797.086 1070.185 809.299 1070.185 C 820.136 1070.185 832.592 1060.48 832.592 1047.863 C 832.592 1031.121 837.121 1027.805 850.061 1014.865 C 864.781 1000.145 853.135 990.601 842.297 990.601 C 826.445 990.601 827.255 972.458 842.297 957.603 C 875.673 924.227 838.415 917.757 838.415 932.369 C 838.415 943.638 828.467 936.494 819.004 945.957 Z " fill="none" vector-effect="non-scaling-stroke" stroke-width="10" stroke="rgb(255,255,255)" stroke-linejoin="miter" stroke-linecap="square" stroke-miterlimit="3"/></g><g><path d=" M 650.817 1297.796 C 606.226 1342.386 655.433 1317.839 645.964 1379.321 C 645.964 1395.119 629.626 1391.776 612.966 1408.437 C 585.521 1435.881 620.73 1458.419 620.73 1435.612 C 620.73 1424.208 628.899 1422.024 641.111 1422.024 C 651.949 1422.024 664.404 1412.319 664.404 1399.702 C 664.404 1382.96 668.933 1379.644 681.874 1366.704 C 696.593 1351.984 684.947 1342.44 674.109 1342.44 C 658.257 1342.44 659.068 1324.297 674.109 1309.442 C 707.485 1276.066 670.227 1269.596 670.227 1284.208 C 670.227 1295.477 660.279 1288.333 650.817 1297.796 Z " fill="none" vector-effect="non-scaling-stroke" stroke-width="10" stroke="rgb(255,255,255)" stroke-linejoin="miter" stroke-linecap="square" stroke-miterlimit="3"/><path d=" M 744.817 1180.957 C 700.226 1225.547 749.433 1201 739.964 1262.482 C 739.964 1278.28 723.626 1274.937 706.966 1291.598 C 679.521 1319.042 714.73 1341.58 714.73 1318.773 C 714.73 1307.369 722.899 1305.185 735.111 1305.185 C 745.949 1305.185 758.404 1295.48 758.404 1282.863 C 758.404 1266.121 762.933 1262.805 775.874 1249.865 C 790.593 1235.145 778.947 1225.601 768.109 1225.601 C 752.257 1225.601 753.068 1207.458 768.109 1192.603 C 801.485 1159.227 764.227 1152.757 764.227 1167.369 C 764.227 1178.638 754.279 1171.494 744.817 1180.957 Z " fill="none" vector-effect="non-scaling-stroke" stroke-width="10" stroke="rgb(255,255,255)" stroke-linejoin="miter" stroke-linecap="square" stroke-miterlimit="3"/><path d=" M 843.504 1065.796 C 798.913 1110.386 848.12 1085.839 838.652 1147.321 C 838.652 1163.119 822.314 1159.776 805.653 1176.437 C 778.209 1203.881 813.418 1226.419 813.418 1203.612 C 813.418 1192.208 821.586 1190.024 833.799 1190.024 C 844.636 1190.024 857.092 1180.319 857.092 1167.702 C 857.092 1150.96 861.621 1147.644 874.561 1134.704 C 889.281 1119.984 877.635 1110.44 866.797 1110.44 C 850.945 1110.44 851.755 1092.297 866.797 1077.442 C 900.173 1044.066 862.915 1037.596 862.915 1052.208 C 862.915 1063.477 852.967 1056.333 843.504 1065.796 Z " fill="none" vector-effect="non-scaling-stroke" stroke-width="10" stroke="rgb(255,255,255)" stroke-linejoin="miter" stroke-linecap="square" stroke-miterlimit="3"/></g><g><path d=" M 690.317 1397.796 C 645.726 1442.386 694.933 1417.839 685.464 1479.321 C 685.464 1495.119 669.127 1491.776 652.466 1508.437 C 625.021 1535.881 660.23 1558.419 660.23 1535.612 C 660.23 1524.208 668.399 1522.024 680.611 1522.024 C 691.449 1522.024 703.904 1512.319 703.904 1499.702 C 703.904 1482.96 708.433 1479.644 721.374 1466.704 C 736.093 1451.984 724.447 1442.44 713.609 1442.44 C 697.757 1442.44 698.568 1424.297 713.609 1409.442 C 746.985 1376.066 709.727 1369.596 709.727 1384.208 C 709.727 1395.477 699.779 1388.333 690.317 1397.796 Z " fill="none" vector-effect="non-scaling-stroke" stroke-width="10" stroke="rgb(255,255,255)" stroke-linejoin="miter" stroke-linecap="square" stroke-miterlimit="3"/><path d=" M 784.317 1280.957 C 739.726 1325.547 788.933 1301 779.464 1362.482 C 779.464 1378.28 763.126 1374.937 746.466 1391.598 C 719.021 1419.042 754.23 1441.58 754.23 1418.773 C 754.23 1407.369 762.399 1405.185 774.611 1405.185 C 785.449 1405.185 797.904 1395.48 797.904 1382.863 C 797.904 1366.121 802.433 1362.805 815.374 1349.865 C 830.093 1335.145 818.447 1325.601 807.609 1325.601 C 791.757 1325.601 792.568 1307.458 807.609 1292.603 C 840.985 1259.227 803.727 1252.757 803.727 1267.369 C 803.727 1278.638 793.779 1271.494 784.317 1280.957 Z " fill="none" vector-effect="non-scaling-stroke" stroke-width="10" stroke="rgb(255,255,255)" stroke-linejoin="miter" stroke-linecap="square" stroke-miterlimit="3"/><path d=" M 883.004 1165.796 C 838.413 1210.386 887.62 1185.839 878.152 1247.321 C 878.152 1263.119 861.814 1259.776 845.153 1276.437 C 817.709 1303.881 852.918 1326.419 852.918 1303.612 C 852.918 1292.208 861.086 1290.024 873.299 1290.024 C 884.136 1290.024 896.592 1280.319 896.592 1267.702 C 896.592 1250.96 901.121 1247.644 914.061 1234.704 C 928.781 1219.984 917.135 1210.44 906.297 1210.44 C 890.445 1210.44 891.255 1192.297 906.297 1177.442 C 939.673 1144.066 902.415 1137.596 902.415 1152.208 C 902.415 1163.477 892.467 1156.333 883.004 1165.796 Z " fill="none" vector-effect="non-scaling-stroke" stroke-width="10" stroke="rgb(255,255,255)" stroke-linejoin="miter" stroke-linecap="square" stroke-miterlimit="3"/></g><g><path d=" M 589.317 920.796 C 544.726 965.386 593.933 940.839 584.464 1002.321 C 584.464 1018.119 568.127 1014.776 551.466 1031.437 C 524.021 1058.881 559.23 1081.419 559.23 1058.612 C 559.23 1047.208 567.399 1045.024 579.611 1045.024 C 590.449 1045.024 602.904 1035.319 602.904 1022.702 C 602.904 1005.96 607.433 1002.644 620.374 989.704 C 635.093 974.984 623.447 965.44 612.609 965.44 C 596.757 965.44 597.568 947.297 612.609 932.442 C 645.985 899.066 608.727 892.596 608.727 907.208 C 608.727 918.477 598.779 911.333 589.317 920.796 Z " fill="none" vector-effect="non-scaling-stroke" stroke-width="10" stroke="rgb(255,255,255)" stroke-linejoin="miter" stroke-linecap="square" stroke-miterlimit="3"/><path d=" M 683.317 803.957 C 638.726 848.547 687.933 824 678.464 885.482 C 678.464 901.28 662.127 897.937 645.466 914.598 C 618.021 942.042 653.23 964.58 653.23 941.773 C 653.23 930.369 661.399 928.185 673.611 928.185 C 684.449 928.185 696.904 918.48 696.904 905.863 C 696.904 889.121 701.433 885.805 714.374 872.865 C 729.093 858.145 717.447 848.601 706.609 848.601 C 690.757 848.601 691.568 830.458 706.609 815.603 C 739.985 782.227 702.727 775.757 702.727 790.369 C 702.727 801.638 692.779 794.494 683.317 803.957 Z " fill="none" vector-effect="non-scaling-stroke" stroke-width="10" stroke="rgb(255,255,255)" stroke-linejoin="miter" stroke-linecap="square" stroke-miterlimit="3"/><path d=" M 782.004 688.796 C 737.413 733.386 786.62 708.839 777.152 770.321 C 777.152 786.119 760.814 782.776 744.153 799.437 C 716.709 826.881 751.918 849.419 751.918 826.612 C 751.918 815.208 760.086 813.024 772.299 813.024 C 783.136 813.024 795.592 803.319 795.592 790.702 C 795.592 773.96 800.121 770.644 813.061 757.704 C 827.781 742.984 816.135 733.44 805.297 733.44 C 789.445 733.44 790.255 715.297 805.297 700.442 C 838.673 667.066 801.415 660.596 801.415 675.208 C 801.415 686.477 791.467 679.333 782.004 688.796 Z " fill="none" vector-effect="non-scaling-stroke" stroke-width="10" stroke="rgb(255,255,255)" stroke-linejoin="miter" stroke-linecap="square" stroke-miterlimit="3"/></g><g><path d=" M 562.317 802.796 C 517.726 847.386 566.933 822.839 557.464 884.321 C 557.464 900.119 541.127 896.776 524.466 913.437 C 497.021 940.881 532.23 963.419 532.23 940.612 C 532.23 929.208 540.399 927.024 552.611 927.024 C 563.449 927.024 575.904 917.319 575.904 904.702 C 575.904 887.96 580.433 884.644 593.374 871.704 C 608.093 856.984 596.447 847.44 585.609 847.44 C 569.757 847.44 570.568 829.297 585.609 814.442 C 618.985 781.066 581.727 774.596 581.727 789.208 C 581.727 800.477 571.779 793.333 562.317 802.796 Z " fill="none" vector-effect="non-scaling-stroke" stroke-width="10" stroke="rgb(255,255,255)" stroke-linejoin="miter" stroke-linecap="square" stroke-miterlimit="3"/><path d=" M 656.317 685.957 C 611.726 730.547 660.933 706 651.464 767.482 C 651.464 783.28 635.126 779.937 618.466 796.598 C 591.021 824.042 626.23 846.58 626.23 823.773 C 626.23 812.369 634.399 810.185 646.611 810.185 C 657.449 810.185 669.904 800.48 669.904 787.863 C 669.904 771.121 674.433 767.805 687.374 754.865 C 702.093 740.145 690.447 730.601 679.609 730.601 C 663.757 730.601 664.568 712.458 679.609 697.603 C 712.985 664.227 675.727 657.757 675.727 672.369 C 675.727 683.638 665.779 676.494 656.317 685.957 Z " fill="none" vector-effect="non-scaling-stroke" stroke-width="10" stroke="rgb(255,255,255)" stroke-linejoin="miter" stroke-linecap="square" stroke-miterlimit="3"/><path d=" M 755.004 570.796 C 710.413 615.386 759.62 590.839 750.152 652.321 C 750.152 668.119 733.814 664.776 717.153 681.437 C 689.709 708.881 724.918 731.419 724.918 708.612 C 724.918 697.208 733.086 695.024 745.299 695.024 C 756.136 695.024 768.592 685.319 768.592 672.702 C 768.592 655.96 773.121 652.644 786.061 639.704 C 800.781 624.984 789.135 615.44 778.297 615.44 C 762.445 615.44 763.255 597.297 778.297 582.442 C 811.673 549.066 774.415 542.596 774.415 557.208 C 774.415 568.477 764.467 561.333 755.004 570.796 Z " fill="none" vector-effect="non-scaling-stroke" stroke-width="10" stroke="rgb(255,255,255)" stroke-linejoin="miter" stroke-linecap="square" stroke-miterlimit="3"/></g><g><path d=" M 535.317 681.796 C 490.726 726.386 539.933 701.839 530.464 763.321 C 530.464 779.119 514.127 775.776 497.466 792.437 C 470.021 819.881 505.23 842.419 505.23 819.612 C 505.23 808.208 513.399 806.024 525.611 806.024 C 536.449 806.024 548.904 796.319 548.904 783.702 C 548.904 766.96 553.433 763.644 566.374 750.704 C 581.093 735.984 569.447 726.44 558.609 726.44 C 542.757 726.44 543.568 708.297 558.609 693.442 C 591.985 660.066 554.727 653.596 554.727 668.208 C 554.727 679.477 544.779 672.333 535.317 681.796 Z " fill="none" vector-effect="non-scaling-stroke" stroke-width="10" stroke="rgb(255,255,255)" stroke-linejoin="miter" stroke-linecap="square" stroke-miterlimit="3"/><path d=" M 629.317 564.957 C 584.726 609.547 633.933 585 624.464 646.482 C 624.464 662.28 608.126 658.937 591.466 675.598 C 564.021 703.042 599.23 725.58 599.23 702.773 C 599.23 691.369 607.399 689.185 619.611 689.185 C 630.449 689.185 642.904 679.48 642.904 666.863 C 642.904 650.121 647.433 646.805 660.374 633.865 C 675.093 619.145 663.447 609.601 652.609 609.601 C 636.757 609.601 637.568 591.458 652.609 576.603 C 685.985 543.227 648.727 536.757 648.727 551.369 C 648.727 562.638 638.779 555.494 629.317 564.957 Z " fill="none" vector-effect="non-scaling-stroke" stroke-width="10" stroke="rgb(255,255,255)" stroke-linejoin="miter" stroke-linecap="square" stroke-miterlimit="3"/><path d=" M 728.004 449.796 C 683.413 494.386 732.62 469.839 723.152 531.321 C 723.152 547.119 706.814 543.776 690.153 560.437 C 662.709 587.881 697.918 610.419 697.918 587.612 C 697.918 576.208 706.086 574.024 718.299 574.024 C 729.136 574.024 741.592 564.319 741.592 551.702 C 741.592 534.96 746.121 531.644 759.061 518.704 C 773.781 503.984 762.135 494.44 751.297 494.44 C 735.445 494.44 736.255 476.297 751.297 461.442 C 784.673 428.066 747.415 421.596 747.415 436.208 C 747.415 447.477 737.467 440.333 728.004 449.796 Z " fill="none" vector-effect="non-scaling-stroke" stroke-width="10" stroke="rgb(255,255,255)" stroke-linejoin="miter" stroke-linecap="square" stroke-miterlimit="3"/></g><g><path d=" M 511.317 560.796 C 466.726 605.386 515.933 580.839 506.464 642.321 C 506.464 658.119 490.127 654.776 473.466 671.437 C 446.021 698.881 481.23 721.419 481.23 698.612 C 481.23 687.208 489.399 685.024 501.611 685.024 C 512.449 685.024 524.904 675.319 524.904 662.702 C 524.904 645.96 529.433 642.644 542.374 629.704 C 557.093 614.984 545.447 605.44 534.609 605.44 C 518.757 605.44 519.568 587.297 534.609 572.442 C 567.985 539.066 530.727 532.596 530.727 547.208 C 530.727 558.477 520.779 551.333 511.317 560.796 Z " fill="none" vector-effect="non-scaling-stroke" stroke-width="10" stroke="rgb(255,255,255)" stroke-linejoin="miter" stroke-linecap="square" stroke-miterlimit="3"/><path d=" M 605.317 443.957 C 560.726 488.547 609.933 464 600.464 525.482 C 600.464 541.28 584.126 537.937 567.466 554.598 C 540.021 582.042 575.23 604.58 575.23 581.773 C 575.23 570.369 583.399 568.185 595.611 568.185 C 606.449 568.185 618.904 558.48 618.904 545.863 C 618.904 529.121 623.433 525.805 636.374 512.865 C 651.093 498.145 639.447 488.601 628.609 488.601 C 612.757 488.601 613.568 470.458 628.609 455.603 C 661.985 422.227 624.727 415.757 624.727 430.369 C 624.727 441.638 614.779 434.494 605.317 443.957 Z " fill="none" vector-effect="non-scaling-stroke" stroke-width="10" stroke="rgb(255,255,255)" stroke-linejoin="miter" stroke-linecap="square" stroke-miterlimit="3"/><path d=" M 704.004 328.796 C 659.413 373.386 708.62 348.839 699.152 410.321 C 699.152 426.119 682.814 422.776 666.153 439.437 C 638.709 466.881 673.918 489.419 673.918 466.612 C 673.918 455.208 682.086 453.024 694.299 453.024 C 705.136 453.024 717.592 443.319 717.592 430.702 C 717.592 413.96 722.121 410.644 735.061 397.704 C 749.781 382.984 738.135 373.44 727.297 373.44 C 711.445 373.44 712.255 355.297 727.297 340.442 C 760.673 307.066 723.415 300.596 723.415 315.208 C 723.415 326.477 713.467 319.333 704.004 328.796 Z " fill="none" vector-effect="non-scaling-stroke" stroke-width="10" stroke="rgb(255,255,255)" stroke-linejoin="miter" stroke-linecap="square" stroke-miterlimit="3"/></g><g><path d=" M 455.317 471.796 C 410.726 516.386 459.933 491.839 450.464 553.321 C 450.464 569.119 434.127 565.776 417.466 582.437 C 390.021 609.881 425.23 632.419 425.23 609.612 C 425.23 598.208 433.399 596.024 445.611 596.024 C 456.449 596.024 468.904 586.319 468.904 573.702 C 468.904 556.96 473.433 553.644 486.374 540.704 C 501.093 525.984 489.447 516.44 478.609 516.44 C 462.757 516.44 463.568 498.297 478.609 483.442 C 511.985 450.066 474.727 443.596 474.727 458.208 C 474.727 469.477 464.779 462.333 455.317 471.796 Z " fill="none" vector-effect="non-scaling-stroke" stroke-width="10" stroke="rgb(255,255,255)" stroke-linejoin="miter" stroke-linecap="square" stroke-miterlimit="3"/><path d=" M 549.317 354.957 C 504.726 399.547 553.933 375 544.464 436.482 C 544.464 452.28 528.126 448.937 511.466 465.598 C 484.021 493.042 519.23 515.58 519.23 492.773 C 519.23 481.369 527.399 479.185 539.611 479.185 C 550.449 479.185 562.904 469.48 562.904 456.863 C 562.904 440.121 567.433 436.805 580.374 423.865 C 595.093 409.145 583.447 399.601 572.609 399.601 C 556.757 399.601 557.568 381.458 572.609 366.603 C 605.985 333.227 568.727 326.757 568.727 341.369 C 568.727 352.638 558.779 345.494 549.317 354.957 Z " fill="none" vector-effect="non-scaling-stroke" stroke-width="10" stroke="rgb(255,255,255)" stroke-linejoin="miter" stroke-linecap="square" stroke-miterlimit="3"/><path d=" M 648.004 239.796 C 603.413 284.386 652.62 259.839 643.152 321.321 C 643.152 337.119 626.814 333.776 610.153 350.437 C 582.709 377.881 617.918 400.419 617.918 377.612 C 617.918 366.208 626.086 364.024 638.299 364.024 C 649.136 364.024 661.592 354.319 661.592 341.702 C 661.592 324.96 666.121 321.644 679.061 308.704 C 693.781 293.984 682.135 284.44 671.297 284.44 C 655.445 284.44 656.255 266.297 671.297 251.442 C 704.673 218.066 667.415 211.596 667.415 226.208 C 667.415 237.477 657.467 230.333 648.004 239.796 Z " fill="none" vector-effect="non-scaling-stroke" stroke-width="10" stroke="rgb(255,255,255)" stroke-linejoin="miter" stroke-linecap="square" stroke-miterlimit="3"/></g></g><g><g><path d=" M 891.317 762.796 C 846.726 807.386 895.933 782.839 886.464 844.321 C 886.464 860.119 870.127 856.776 853.466 873.437 C 826.021 900.881 861.23 923.419 861.23 900.612 C 861.23 889.208 869.399 887.024 881.611 887.024 C 892.449 887.024 904.904 877.319 904.904 864.702 C 904.904 847.96 909.433 844.644 922.374 831.704 C 937.093 816.984 925.447 807.44 914.609 807.44 C 898.757 807.44 899.568 789.297 914.609 774.442 C 947.985 741.066 910.727 734.596 910.727 749.208 C 910.727 760.477 900.779 753.333 891.317 762.796 Z " fill="none" vector-effect="non-scaling-stroke" stroke-width="10" stroke="rgb(255,255,255)" stroke-linejoin="miter" stroke-linecap="square" stroke-miterlimit="3"/><path d=" M 985.317 645.957 C 940.726 690.547 989.933 666 980.464 727.482 C 980.464 743.28 964.127 739.937 947.466 756.598 C 920.021 784.042 955.23 806.58 955.23 783.773 C 955.23 772.369 963.399 770.185 975.611 770.185 C 986.449 770.185 998.904 760.48 998.904 747.863 C 998.904 731.121 1003.433 727.805 1016.374 714.865 C 1031.093 700.145 1019.447 690.601 1008.609 690.601 C 992.757 690.601 993.568 672.458 1008.609 657.603 C 1041.985 624.227 1004.727 617.757 1004.727 632.369 C 1004.727 643.638 994.779 636.494 985.317 645.957 Z " fill="none" vector-effect="non-scaling-stroke" stroke-width="10" stroke="rgb(255,255,255)" stroke-linejoin="miter" stroke-linecap="square" stroke-miterlimit="3"/><path d=" M 1084.004 530.796 C 1039.413 575.386 1088.62 550.839 1079.152 612.321 C 1079.152 628.119 1062.814 624.776 1046.153 641.437 C 1018.709 668.881 1053.918 691.419 1053.918 668.612 C 1053.918 657.208 1062.086 655.024 1074.299 655.024 C 1085.136 655.024 1097.592 645.319 1097.592 632.702 C 1097.592 615.96 1102.121 612.644 1115.061 599.704 C 1129.781 584.984 1118.135 575.44 1107.297 575.44 C 1091.445 575.44 1092.255 557.297 1107.297 542.442 C 1140.673 509.066 1103.415 502.596 1103.415 517.208 C 1103.415 528.477 1093.467 521.333 1084.004 530.796 Z " fill="none" vector-effect="non-scaling-stroke" stroke-width="10" stroke="rgb(255,255,255)" stroke-linejoin="miter" stroke-linecap="square" stroke-miterlimit="3"/></g><g><path d=" M 914.317 883.957 C 869.726 928.547 918.933 904 909.464 965.482 C 909.464 981.28 893.127 977.937 876.466 994.598 C 849.021 1022.042 884.23 1044.58 884.23 1021.773 C 884.23 1010.369 892.399 1008.185 904.611 1008.185 C 915.449 1008.185 927.904 998.48 927.904 985.863 C 927.904 969.121 932.433 965.805 945.374 952.865 C 960.093 938.145 948.447 928.601 937.609 928.601 C 921.757 928.601 922.568 910.458 937.609 895.603 C 970.985 862.227 933.727 855.757 933.727 870.369 C 933.727 881.638 923.779 874.494 914.317 883.957 Z " fill="none" vector-effect="non-scaling-stroke" stroke-width="10" stroke="rgb(255,255,255)" stroke-linejoin="miter" stroke-linecap="square" stroke-miterlimit="3"/><path d=" M 1008.317 767.118 C 963.726 811.708 1012.933 787.161 1003.464 848.643 C 1003.464 864.441 987.126 861.098 970.466 877.759 C 943.021 905.203 978.23 927.741 978.23 904.934 C 978.23 893.53 986.399 891.346 998.611 891.346 C 1009.449 891.346 1021.904 881.641 1021.904 869.024 C 1021.904 852.282 1026.433 848.966 1039.374 836.026 C 1054.093 821.306 1042.447 811.762 1031.609 811.762 C 1015.757 811.762 1016.568 793.619 1031.609 778.764 C 1064.985 745.388 1027.727 738.918 1027.727 753.53 C 1027.727 764.799 1017.779 757.655 1008.317 767.118 Z " fill="none" vector-effect="non-scaling-stroke" stroke-width="10" stroke="rgb(255,255,255)" stroke-linejoin="miter" stroke-linecap="square" stroke-miterlimit="3"/><path d=" M 1107.004 651.957 C 1062.413 696.547 1111.62 672 1102.152 733.482 C 1102.152 749.28 1085.814 745.937 1069.153 762.598 C 1041.709 790.042 1076.918 812.58 1076.918 789.773 C 1076.918 778.369 1085.086 776.185 1097.299 776.185 C 1108.136 776.185 1120.592 766.48 1120.592 753.863 C 1120.592 737.121 1125.121 733.805 1138.061 720.865 C 1152.781 706.145 1141.135 696.601 1130.297 696.601 C 1114.445 696.601 1115.255 678.458 1130.297 663.603 C 1163.673 630.227 1126.415 623.757 1126.415 638.369 C 1126.415 649.638 1116.467 642.494 1107.004 651.957 Z " fill="none" vector-effect="non-scaling-stroke" stroke-width="10" stroke="rgb(255,255,255)" stroke-linejoin="miter" stroke-linecap="square" stroke-miterlimit="3"/></g><g><path d=" M 938.817 1003.796 C 894.226 1048.386 943.433 1023.839 933.964 1085.321 C 933.964 1101.119 917.626 1097.776 900.966 1114.437 C 873.521 1141.881 908.73 1164.419 908.73 1141.612 C 908.73 1130.208 916.899 1128.024 929.111 1128.024 C 939.949 1128.024 952.404 1118.319 952.404 1105.702 C 952.404 1088.96 956.933 1085.644 969.874 1072.704 C 984.593 1057.984 972.947 1048.44 962.109 1048.44 C 946.257 1048.44 947.068 1030.297 962.109 1015.442 C 995.485 982.066 958.227 975.596 958.227 990.208 C 958.227 1001.477 948.279 994.333 938.817 1003.796 Z " fill="none" vector-effect="non-scaling-stroke" stroke-width="10" stroke="rgb(255,255,255)" stroke-linejoin="miter" stroke-linecap="square" stroke-miterlimit="3"/><path d=" M 1032.817 886.957 C 988.226 931.547 1037.433 907 1027.964 968.482 C 1027.964 984.28 1011.626 980.937 994.966 997.598 C 967.521 1025.042 1002.73 1047.58 1002.73 1024.773 C 1002.73 1013.369 1010.899 1011.185 1023.111 1011.185 C 1033.949 1011.185 1046.404 1001.48 1046.404 988.863 C 1046.404 972.121 1050.933 968.805 1063.874 955.865 C 1078.593 941.145 1066.947 931.601 1056.109 931.601 C 1040.257 931.601 1041.068 913.458 1056.109 898.603 C 1089.485 865.227 1052.227 858.757 1052.227 873.369 C 1052.227 884.638 1042.279 877.494 1032.817 886.957 Z " fill="none" vector-effect="non-scaling-stroke" stroke-width="10" stroke="rgb(255,255,255)" stroke-linejoin="miter" stroke-linecap="square" stroke-miterlimit="3"/><path d=" M 1131.504 771.796 C 1086.913 816.386 1136.12 791.839 1126.652 853.321 C 1126.652 869.119 1110.314 865.776 1093.653 882.437 C 1066.209 909.881 1101.418 932.419 1101.418 909.612 C 1101.418 898.208 1109.586 896.024 1121.799 896.024 C 1132.636 896.024 1145.092 886.319 1145.092 873.702 C 1145.092 856.96 1149.621 853.644 1162.561 840.704 C 1177.281 825.984 1165.635 816.44 1154.797 816.44 C 1138.945 816.44 1139.755 798.297 1154.797 783.442 C 1188.173 750.066 1150.915 743.596 1150.915 758.208 C 1150.915 769.477 1140.967 762.333 1131.504 771.796 Z " fill="none" vector-effect="non-scaling-stroke" stroke-width="10" stroke="rgb(255,255,255)" stroke-linejoin="miter" stroke-linecap="square" stroke-miterlimit="3"/></g><g><path d=" M 978.317 1103.796 C 933.726 1148.386 982.933 1123.839 973.464 1185.321 C 973.464 1201.119 957.127 1197.776 940.466 1214.437 C 913.021 1241.881 948.23 1264.419 948.23 1241.612 C 948.23 1230.208 956.399 1228.024 968.611 1228.024 C 979.449 1228.024 991.904 1218.319 991.904 1205.702 C 991.904 1188.96 996.433 1185.644 1009.374 1172.704 C 1024.093 1157.984 1012.447 1148.44 1001.609 1148.44 C 985.757 1148.44 986.568 1130.297 1001.609 1115.442 C 1034.985 1082.066 997.727 1075.596 997.727 1090.208 C 997.727 1101.477 987.779 1094.333 978.317 1103.796 Z " fill="none" vector-effect="non-scaling-stroke" stroke-width="10" stroke="rgb(255,255,255)" stroke-linejoin="miter" stroke-linecap="square" stroke-miterlimit="3"/><path d=" M 1072.317 986.957 C 1027.726 1031.547 1076.933 1007 1067.464 1068.482 C 1067.464 1084.28 1051.126 1080.937 1034.466 1097.598 C 1007.021 1125.042 1042.23 1147.58 1042.23 1124.773 C 1042.23 1113.369 1050.399 1111.185 1062.611 1111.185 C 1073.449 1111.185 1085.904 1101.48 1085.904 1088.863 C 1085.904 1072.121 1090.433 1068.805 1103.374 1055.865 C 1118.093 1041.145 1106.447 1031.601 1095.609 1031.601 C 1079.757 1031.601 1080.568 1013.458 1095.609 998.603 C 1128.985 965.227 1091.727 958.757 1091.727 973.369 C 1091.727 984.638 1081.779 977.494 1072.317 986.957 Z " fill="none" vector-effect="non-scaling-stroke" stroke-width="10" stroke="rgb(255,255,255)" stroke-linejoin="miter" stroke-linecap="square" stroke-miterlimit="3"/><path d=" M 1171.004 871.796 C 1126.413 916.386 1175.62 891.839 1166.152 953.321 C 1166.152 969.119 1149.814 965.776 1133.153 982.437 C 1105.709 1009.881 1140.918 1032.419 1140.918 1009.612 C 1140.918 998.208 1149.086 996.024 1161.299 996.024 C 1172.136 996.024 1184.592 986.319 1184.592 973.702 C 1184.592 956.96 1189.121 953.644 1202.061 940.704 C 1216.781 925.984 1205.135 916.44 1194.297 916.44 C 1178.445 916.44 1179.255 898.297 1194.297 883.442 C 1227.673 850.066 1190.415 843.596 1190.415 858.208 C 1190.415 869.477 1180.467 862.333 1171.004 871.796 Z " fill="none" vector-effect="non-scaling-stroke" stroke-width="10" stroke="rgb(255,255,255)" stroke-linejoin="miter" stroke-linecap="square" stroke-miterlimit="3"/></g><g><path d=" M 1008.317 1215.796 C 963.726 1260.386 1012.933 1235.839 1003.464 1297.321 C 1003.464 1313.119 987.127 1309.776 970.466 1326.437 C 943.021 1353.881 978.23 1376.419 978.23 1353.612 C 978.23 1342.208 986.399 1340.024 998.611 1340.024 C 1009.449 1340.024 1021.904 1330.319 1021.904 1317.702 C 1021.904 1300.96 1026.433 1297.644 1039.374 1284.704 C 1054.093 1269.984 1042.447 1260.44 1031.609 1260.44 C 1015.757 1260.44 1016.568 1242.297 1031.609 1227.442 C 1064.985 1194.066 1027.727 1187.596 1027.727 1202.208 C 1027.727 1213.477 1017.779 1206.333 1008.317 1215.796 Z " fill="none" vector-effect="non-scaling-stroke" stroke-width="10" stroke="rgb(255,255,255)" stroke-linejoin="miter" stroke-linecap="square" stroke-miterlimit="3"/><path d=" M 1102.317 1098.957 C 1057.726 1143.547 1106.933 1119 1097.464 1180.482 C 1097.464 1196.28 1081.126 1192.937 1064.466 1209.598 C 1037.021 1237.042 1072.23 1259.58 1072.23 1236.773 C 1072.23 1225.369 1080.399 1223.185 1092.611 1223.185 C 1103.449 1223.185 1115.904 1213.48 1115.904 1200.863 C 1115.904 1184.121 1120.433 1180.805 1133.374 1167.865 C 1148.093 1153.145 1136.447 1143.601 1125.609 1143.601 C 1109.757 1143.601 1110.568 1125.458 1125.609 1110.603 C 1158.985 1077.227 1121.727 1070.757 1121.727 1085.369 C 1121.727 1096.638 1111.779 1089.494 1102.317 1098.957 Z " fill="none" vector-effect="non-scaling-stroke" stroke-width="10" stroke="rgb(255,255,255)" stroke-linejoin="miter" stroke-linecap="square" stroke-miterlimit="3"/><path d=" M 1201.004 983.796 C 1156.413 1028.386 1205.62 1003.839 1196.152 1065.321 C 1196.152 1081.119 1179.814 1077.776 1163.153 1094.437 C 1135.709 1121.881 1170.918 1144.419 1170.918 1121.612 C 1170.918 1110.208 1179.086 1108.024 1191.299 1108.024 C 1202.136 1108.024 1214.592 1098.319 1214.592 1085.702 C 1214.592 1068.96 1219.121 1065.644 1232.061 1052.704 C 1246.781 1037.984 1235.135 1028.44 1224.297 1028.44 C 1208.445 1028.44 1209.255 1010.297 1224.297 995.442 C 1257.673 962.066 1220.415 955.596 1220.415 970.208 C 1220.415 981.477 1210.467 974.333 1201.004 983.796 Z " fill="none" vector-effect="non-scaling-stroke" stroke-width="10" stroke="rgb(255,255,255)" stroke-linejoin="miter" stroke-linecap="square" stroke-miterlimit="3"/></g><g><path d=" M 1318.317 995.796 C 1273.726 1040.386 1322.933 1015.839 1313.464 1077.321 C 1313.464 1093.119 1297.127 1089.776 1280.466 1106.437 C 1253.021 1133.881 1288.23 1156.419 1288.23 1133.612 C 1288.23 1122.208 1296.399 1120.024 1308.611 1120.024 C 1319.449 1120.024 1331.904 1110.319 1331.904 1097.702 C 1331.904 1080.96 1336.433 1077.644 1349.374 1064.704 C 1364.093 1049.984 1352.447 1040.44 1341.609 1040.44 C 1325.757 1040.44 1326.568 1022.297 1341.609 1007.442 C 1374.985 974.066 1337.727 967.596 1337.727 982.208 C 1337.727 993.477 1327.779 986.333 1318.317 995.796 Z " fill="none" vector-effect="non-scaling-stroke" stroke-width="10" stroke="rgb(255,255,255)" stroke-linejoin="miter" stroke-linecap="square" stroke-miterlimit="3"/><path d=" M 1412.317 878.957 C 1367.726 923.547 1416.933 899 1407.464 960.482 C 1407.464 976.28 1391.126 972.937 1374.466 989.598 C 1347.021 1017.042 1382.23 1039.58 1382.23 1016.773 C 1382.23 1005.369 1390.399 1003.185 1402.611 1003.185 C 1413.449 1003.185 1425.904 993.48 1425.904 980.863 C 1425.904 964.121 1430.433 960.805 1443.374 947.865 C 1458.093 933.145 1446.447 923.601 1435.609 923.601 C 1419.757 923.601 1420.568 905.458 1435.609 890.603 C 1468.985 857.227 1431.727 850.757 1431.727 865.369 C 1431.727 876.638 1421.779 869.494 1412.317 878.957 Z " fill="none" vector-effect="non-scaling-stroke" stroke-width="10" stroke="rgb(255,255,255)" stroke-linejoin="miter" stroke-linecap="square" stroke-miterlimit="3"/><path d=" M 1511.004 763.796 C 1466.413 808.386 1515.62 783.839 1506.152 845.321 C 1506.152 861.119 1489.814 857.776 1473.153 874.437 C 1445.709 901.881 1480.918 924.419 1480.918 901.612 C 1480.918 890.208 1489.086 888.024 1501.299 888.024 C 1512.136 888.024 1524.592 878.319 1524.592 865.702 C 1524.592 848.96 1529.121 845.644 1542.061 832.704 C 1556.781 817.984 1545.135 808.44 1534.297 808.44 C 1518.445 808.44 1519.255 790.297 1534.297 775.442 C 1567.673 742.066 1530.415 735.596 1530.415 750.208 C 1530.415 761.477 1520.467 754.333 1511.004 763.796 Z " fill="none" vector-effect="non-scaling-stroke" stroke-width="10" stroke="rgb(255,255,255)" stroke-linejoin="miter" stroke-linecap="square" stroke-miterlimit="3"/></g><g><path d=" M 1296.317 861.796 C 1251.726 906.386 1300.933 881.839 1291.464 943.321 C 1291.464 959.119 1275.127 955.776 1258.466 972.437 C 1231.021 999.881 1266.23 1022.419 1266.23 999.612 C 1266.23 988.208 1274.399 986.024 1286.611 986.024 C 1297.449 986.024 1309.904 976.319 1309.904 963.702 C 1309.904 946.96 1314.433 943.644 1327.374 930.704 C 1342.093 915.984 1330.447 906.44 1319.609 906.44 C 1303.757 906.44 1304.568 888.297 1319.609 873.442 C 1352.985 840.066 1315.727 833.596 1315.727 848.208 C 1315.727 859.477 1305.779 852.333 1296.317 861.796 Z " fill="none" vector-effect="non-scaling-stroke" stroke-width="10" stroke="rgb(255,255,255)" stroke-linejoin="miter" stroke-linecap="square" stroke-miterlimit="3"/><path d=" M 1390.317 744.957 C 1345.726 789.547 1394.933 765 1385.464 826.482 C 1385.464 842.28 1369.126 838.937 1352.466 855.598 C 1325.021 883.042 1360.23 905.58 1360.23 882.773 C 1360.23 871.369 1368.399 869.185 1380.611 869.185 C 1391.449 869.185 1403.904 859.48 1403.904 846.863 C 1403.904 830.121 1408.433 826.805 1421.374 813.865 C 1436.093 799.145 1424.447 789.601 1413.609 789.601 C 1397.757 789.601 1398.568 771.458 1413.609 756.603 C 1446.985 723.227 1409.727 716.757 1409.727 731.369 C 1409.727 742.638 1399.779 735.494 1390.317 744.957 Z " fill="none" vector-effect="non-scaling-stroke" stroke-width="10" stroke="rgb(255,255,255)" stroke-linejoin="miter" stroke-linecap="square" stroke-miterlimit="3"/><path d=" M 1489.004 629.796 C 1444.413 674.386 1493.62 649.839 1484.152 711.321 C 1484.152 727.119 1467.814 723.776 1451.153 740.437 C 1423.709 767.881 1458.918 790.419 1458.918 767.612 C 1458.918 756.208 1467.086 754.024 1479.299 754.024 C 1490.136 754.024 1502.592 744.319 1502.592 731.702 C 1502.592 714.96 1507.121 711.644 1520.061 698.704 C 1534.781 683.984 1523.135 674.44 1512.297 674.44 C 1496.445 674.44 1497.255 656.297 1512.297 641.442 C 1545.673 608.066 1508.415 601.596 1508.415 616.208 C 1508.415 627.477 1498.467 620.333 1489.004 629.796 Z " fill="none" vector-effect="non-scaling-stroke" stroke-width="10" stroke="rgb(255,255,255)" stroke-linejoin="miter" stroke-linecap="square" stroke-miterlimit="3"/></g><g><path d=" M 1257.317 753.796 C 1212.726 798.386 1261.933 773.839 1252.464 835.321 C 1252.464 851.119 1236.126 847.776 1219.466 864.437 C 1192.021 891.881 1227.23 914.419 1227.23 891.612 C 1227.23 880.208 1235.399 878.024 1247.611 878.024 C 1258.449 878.024 1270.904 868.319 1270.904 855.702 C 1270.904 838.96 1275.433 835.644 1288.374 822.704 C 1303.093 807.984 1291.447 798.44 1280.609 798.44 C 1264.757 798.44 1265.568 780.297 1280.609 765.442 C 1313.985 732.066 1276.727 725.596 1276.727 740.208 C 1276.727 751.477 1266.779 744.333 1257.317 753.796 Z " fill="none" vector-effect="non-scaling-stroke" stroke-width="10" stroke="rgb(255,255,255)" stroke-linejoin="miter" stroke-linecap="square" stroke-miterlimit="3"/><path d=" M 1351.317 636.957 C 1306.726 681.547 1355.933 657 1346.464 718.482 C 1346.464 734.28 1330.126 730.937 1313.466 747.598 C 1286.021 775.042 1321.23 797.58 1321.23 774.773 C 1321.23 763.369 1329.399 761.185 1341.611 761.185 C 1352.449 761.185 1364.904 751.48 1364.904 738.863 C 1364.904 722.121 1369.433 718.805 1382.374 705.865 C 1397.093 691.145 1385.447 681.601 1374.609 681.601 C 1358.757 681.601 1359.568 663.458 1374.609 648.603 C 1407.985 615.227 1370.727 608.757 1370.727 623.369 C 1370.727 634.638 1360.779 627.494 1351.317 636.957 Z " fill="none" vector-effect="non-scaling-stroke" stroke-width="10" stroke="rgb(255,255,255)" stroke-linejoin="miter" stroke-linecap="square" stroke-miterlimit="3"/><path d=" M 1450.004 521.796 C 1405.413 566.386 1454.62 541.839 1445.152 603.321 C 1445.152 619.119 1428.814 615.776 1412.153 632.437 C 1384.709 659.881 1419.918 682.419 1419.918 659.612 C 1419.918 648.208 1428.086 646.024 1440.299 646.024 C 1451.136 646.024 1463.592 636.319 1463.592 623.702 C 1463.592 606.96 1468.121 603.644 1481.061 590.704 C 1495.781 575.984 1484.135 566.44 1473.297 566.44 C 1457.445 566.44 1458.255 548.297 1473.297 533.442 C 1506.673 500.066 1469.415 493.596 1469.415 508.208 C 1469.415 519.477 1459.467 512.333 1450.004 521.796 Z " fill="none" vector-effect="non-scaling-stroke" stroke-width="10" stroke="rgb(255,255,255)" stroke-linejoin="miter" stroke-linecap="square" stroke-miterlimit="3"/></g><g><path d=" M 1217.817 653.796 C 1173.226 698.386 1222.433 673.839 1212.964 735.321 C 1212.964 751.119 1196.626 747.776 1179.966 764.437 C 1152.521 791.881 1187.73 814.419 1187.73 791.612 C 1187.73 780.208 1195.899 778.024 1208.111 778.024 C 1218.949 778.024 1231.404 768.319 1231.404 755.702 C 1231.404 738.96 1235.933 735.644 1248.874 722.704 C 1263.593 707.984 1251.947 698.44 1241.109 698.44 C 1225.257 698.44 1226.068 680.297 1241.109 665.442 C 1274.485 632.066 1237.227 625.596 1237.227 640.208 C 1237.227 651.477 1227.279 644.333 1217.817 653.796 Z " fill="none" vector-effect="non-scaling-stroke" stroke-width="10" stroke="rgb(255,255,255)" stroke-linejoin="miter" stroke-linecap="square" stroke-miterlimit="3"/><path d=" M 1311.817 536.957 C 1267.226 581.547 1316.433 557 1306.964 618.482 C 1306.964 634.28 1290.626 630.937 1273.966 647.598 C 1246.521 675.042 1281.73 697.58 1281.73 674.773 C 1281.73 663.369 1289.899 661.185 1302.111 661.185 C 1312.949 661.185 1325.404 651.48 1325.404 638.863 C 1325.404 622.121 1329.933 618.805 1342.874 605.865 C 1357.593 591.145 1345.947 581.601 1335.109 581.601 C 1319.257 581.601 1320.068 563.458 1335.109 548.603 C 1368.485 515.227 1331.227 508.757 1331.227 523.369 C 1331.227 534.638 1321.279 527.494 1311.817 536.957 Z " fill="none" vector-effect="non-scaling-stroke" stroke-width="10" stroke="rgb(255,255,255)" stroke-linejoin="miter" stroke-linecap="square" stroke-miterlimit="3"/><path d=" M 1410.504 421.796 C 1365.913 466.386 1415.12 441.839 1405.652 503.321 C 1405.652 519.119 1389.314 515.776 1372.653 532.437 C 1345.209 559.881 1380.418 582.419 1380.418 559.612 C 1380.418 548.208 1388.586 546.024 1400.799 546.024 C 1411.636 546.024 1424.092 536.319 1424.092 523.702 C 1424.092 506.96 1428.621 503.644 1441.561 490.704 C 1456.281 475.984 1444.635 466.44 1433.797 466.44 C 1417.945 466.44 1418.755 448.297 1433.797 433.442 C 1467.173 400.066 1429.915 393.596 1429.915 408.208 C 1429.915 419.477 1419.967 412.333 1410.504 421.796 Z " fill="none" vector-effect="non-scaling-stroke" stroke-width="10" stroke="rgb(255,255,255)" stroke-linejoin="miter" stroke-linecap="square" stroke-miterlimit="3"/></g><g><path d=" M 1187.317 545.957 C 1142.726 590.547 1191.933 566 1182.464 627.482 C 1182.464 643.28 1166.127 639.937 1149.466 656.598 C 1122.021 684.042 1157.23 706.58 1157.23 683.773 C 1157.23 672.369 1165.399 670.185 1177.611 670.185 C 1188.449 670.185 1200.904 660.48 1200.904 647.863 C 1200.904 631.121 1205.433 627.805 1218.374 614.865 C 1233.093 600.145 1221.447 590.601 1210.609 590.601 C 1194.757 590.601 1195.568 572.458 1210.609 557.603 C 1243.985 524.227 1206.727 517.757 1206.727 532.369 C 1206.727 543.638 1196.779 536.494 1187.317 545.957 Z " fill="none" vector-effect="non-scaling-stroke" stroke-width="10" stroke="rgb(255,255,255)" stroke-linejoin="miter" stroke-linecap="square" stroke-miterlimit="3"/><path d=" M 1281.317 429.118 C 1236.726 473.708 1285.933 449.161 1276.464 510.643 C 1276.464 526.441 1260.127 523.098 1243.466 539.759 C 1216.021 567.203 1251.23 589.741 1251.23 566.934 C 1251.23 555.53 1259.399 553.346 1271.611 553.346 C 1282.449 553.346 1294.904 543.641 1294.904 531.024 C 1294.904 514.282 1299.433 510.966 1312.374 498.026 C 1327.093 483.306 1315.447 473.762 1304.609 473.762 C 1288.757 473.762 1289.568 455.619 1304.609 440.764 C 1337.985 407.388 1300.727 400.918 1300.727 415.53 C 1300.727 426.799 1290.779 419.655 1281.317 429.118 Z " fill="none" vector-effect="non-scaling-stroke" stroke-width="10" stroke="rgb(255,255,255)" stroke-linejoin="miter" stroke-linecap="square" stroke-miterlimit="3"/><path d=" M 1380.004 313.957 C 1335.413 358.547 1384.62 334 1375.152 395.482 C 1375.152 411.28 1358.814 407.937 1342.153 424.598 C 1314.709 452.042 1349.918 474.58 1349.918 451.773 C 1349.918 440.369 1358.086 438.185 1370.299 438.185 C 1381.136 438.185 1393.592 428.48 1393.592 415.863 C 1393.592 399.121 1398.121 395.805 1411.061 382.865 C 1425.781 368.145 1414.135 358.601 1403.297 358.601 C 1387.445 358.601 1388.255 340.458 1403.297 325.603 C 1436.673 292.227 1399.415 285.757 1399.415 300.369 C 1399.415 311.638 1389.467 304.494 1380.004 313.957 Z " fill="none" vector-effect="non-scaling-stroke" stroke-width="10" stroke="rgb(255,255,255)" stroke-linejoin="miter" stroke-linecap="square" stroke-miterlimit="3"/></g><g><path d=" M 1164.317 426.715 C 1119.726 471.306 1168.933 446.758 1159.464 508.24 C 1159.464 524.038 1143.127 520.695 1126.466 537.356 C 1099.021 564.801 1134.23 587.339 1134.23 564.531 C 1134.23 553.127 1142.399 550.944 1154.611 550.944 C 1165.449 550.944 1177.904 541.238 1177.904 528.621 C 1177.904 511.88 1182.433 508.564 1195.374 495.623 C 1210.093 480.903 1198.447 471.36 1187.609 471.36 C 1171.757 471.36 1172.568 453.216 1187.609 438.362 C 1220.985 404.986 1183.727 398.516 1183.727 413.128 C 1183.727 424.397 1173.779 417.252 1164.317 426.715 Z " fill="none" vector-effect="non-scaling-stroke" stroke-width="10" stroke="rgb(255,255,255)" stroke-linejoin="miter" stroke-linecap="square" stroke-miterlimit="3"/><path d=" M 1258.317 309.876 C 1213.726 354.467 1262.933 329.92 1253.464 391.401 C 1253.464 407.199 1237.127 403.856 1220.466 420.517 C 1193.021 447.962 1228.23 470.5 1228.23 447.692 C 1228.23 436.288 1236.399 434.105 1248.611 434.105 C 1259.449 434.105 1271.904 424.399 1271.904 411.782 C 1271.904 395.041 1276.433 391.725 1289.374 378.784 C 1304.093 364.064 1292.447 354.521 1281.609 354.521 C 1265.757 354.521 1266.568 336.377 1281.609 321.523 C 1314.985 288.147 1277.727 281.677 1277.727 296.289 C 1277.727 307.558 1267.779 300.413 1258.317 309.876 Z " fill="none" vector-effect="non-scaling-stroke" stroke-width="10" stroke="rgb(255,255,255)" stroke-linejoin="miter" stroke-linecap="square" stroke-miterlimit="3"/><path d=" M 1357.004 194.715 C 1312.413 239.306 1361.62 214.758 1352.152 276.24 C 1352.152 292.038 1335.814 288.695 1319.153 305.356 C 1291.709 332.801 1326.918 355.339 1326.918 332.531 C 1326.918 321.127 1335.086 318.944 1347.299 318.944 C 1358.136 318.944 1370.592 309.238 1370.592 296.621 C 1370.592 279.88 1375.121 276.564 1388.061 263.623 C 1402.781 248.903 1391.135 239.36 1380.297 239.36 C 1364.445 239.36 1365.255 221.216 1380.297 206.362 C 1413.673 172.986 1376.415 166.516 1376.415 181.128 C 1376.415 192.397 1366.467 185.252 1357.004 194.715 Z " fill="none" vector-effect="non-scaling-stroke" stroke-width="10" stroke="rgb(255,255,255)" stroke-linejoin="miter" stroke-linecap="square" stroke-miterlimit="3"/></g><g><path d=" M 1156.817 288.796 C 1112.226 333.386 1161.433 308.839 1151.964 370.321 C 1151.964 386.119 1135.627 382.776 1118.966 399.437 C 1091.521 426.881 1126.73 449.419 1126.73 426.612 C 1126.73 415.208 1134.899 413.024 1147.111 413.024 C 1157.949 413.024 1170.404 403.319 1170.404 390.702 C 1170.404 373.96 1174.933 370.644 1187.874 357.704 C 1202.593 342.984 1190.947 333.44 1180.109 333.44 C 1164.257 333.44 1165.068 315.297 1180.109 300.442 C 1213.485 267.066 1176.227 260.596 1176.227 275.208 C 1176.227 286.477 1166.279 279.333 1156.817 288.796 Z " fill="none" vector-effect="non-scaling-stroke" stroke-width="10" stroke="rgb(255,255,255)" stroke-linejoin="miter" stroke-linecap="square" stroke-miterlimit="3"/><path d=" M 1250.817 171.957 C 1206.226 216.547 1255.433 192 1245.964 253.482 C 1245.964 269.28 1229.626 265.937 1212.966 282.598 C 1185.521 310.042 1220.73 332.58 1220.73 309.773 C 1220.73 298.369 1228.899 296.185 1241.111 296.185 C 1251.949 296.185 1264.404 286.48 1264.404 273.863 C 1264.404 257.121 1268.933 253.805 1281.874 240.865 C 1296.593 226.145 1284.947 216.601 1274.109 216.601 C 1258.257 216.601 1259.068 198.458 1274.109 183.603 C 1307.485 150.227 1270.227 143.757 1270.227 158.369 C 1270.227 169.638 1260.279 162.494 1250.817 171.957 Z " fill="none" vector-effect="non-scaling-stroke" stroke-width="10" stroke="rgb(255,255,255)" stroke-linejoin="miter" stroke-linecap="square" stroke-miterlimit="3"/><path d=" M 1349.504 56.796 C 1304.913 101.386 1354.12 76.839 1344.652 138.321 C 1344.652 154.119 1328.314 150.776 1311.653 167.437 C 1284.209 194.881 1319.418 217.419 1319.418 194.612 C 1319.418 183.208 1327.586 181.024 1339.799 181.024 C 1350.636 181.024 1363.092 171.319 1363.092 158.702 C 1363.092 141.96 1367.621 138.644 1380.561 125.704 C 1395.281 110.984 1383.635 101.44 1372.797 101.44 C 1356.945 101.44 1357.755 83.297 1372.797 68.442 C 1406.173 35.066 1368.915 28.596 1368.915 43.208 C 1368.915 54.477 1358.967 47.333 1349.504 56.796 Z " fill="none" vector-effect="non-scaling-stroke" stroke-width="10" stroke="rgb(255,255,255)" stroke-linejoin="miter" stroke-linecap="square" stroke-miterlimit="3"/></g><g><path d=" M 1344.317 1115.796 C 1299.726 1160.386 1348.933 1135.839 1339.464 1197.321 C 1339.464 1213.119 1323.127 1209.776 1306.466 1226.437 C 1279.021 1253.881 1314.23 1276.419 1314.23 1253.612 C 1314.23 1242.208 1322.399 1240.024 1334.611 1240.024 C 1345.449 1240.024 1357.904 1230.319 1357.904 1217.702 C 1357.904 1200.96 1362.433 1197.644 1375.374 1184.704 C 1390.093 1169.984 1378.447 1160.44 1367.609 1160.44 C 1351.757 1160.44 1352.568 1142.297 1367.609 1127.442 C 1400.985 1094.066 1363.727 1087.596 1363.727 1102.208 C 1363.727 1113.477 1353.779 1106.333 1344.317 1115.796 Z " fill="none" vector-effect="non-scaling-stroke" stroke-width="10" stroke="rgb(255,255,255)" stroke-linejoin="miter" stroke-linecap="square" stroke-miterlimit="3"/><path d=" M 1438.317 998.957 C 1393.726 1043.547 1442.933 1019 1433.464 1080.482 C 1433.464 1096.28 1417.126 1092.937 1400.466 1109.598 C 1373.021 1137.042 1408.23 1159.58 1408.23 1136.773 C 1408.23 1125.369 1416.399 1123.185 1428.611 1123.185 C 1439.449 1123.185 1451.904 1113.48 1451.904 1100.863 C 1451.904 1084.121 1456.433 1080.805 1469.374 1067.865 C 1484.093 1053.145 1472.447 1043.601 1461.609 1043.601 C 1445.757 1043.601 1446.568 1025.458 1461.609 1010.603 C 1494.985 977.227 1457.727 970.757 1457.727 985.369 C 1457.727 996.638 1447.779 989.494 1438.317 998.957 Z " fill="none" vector-effect="non-scaling-stroke" stroke-width="10" stroke="rgb(255,255,255)" stroke-linejoin="miter" stroke-linecap="square" stroke-miterlimit="3"/><path d=" M 1537.004 883.796 C 1492.413 928.386 1541.62 903.839 1532.152 965.321 C 1532.152 981.119 1515.814 977.776 1499.153 994.437 C 1471.709 1021.881 1506.918 1044.419 1506.918 1021.612 C 1506.918 1010.208 1515.086 1008.024 1527.299 1008.024 C 1538.136 1008.024 1550.592 998.319 1550.592 985.702 C 1550.592 968.96 1555.121 965.644 1568.061 952.704 C 1582.781 937.984 1571.135 928.44 1560.297 928.44 C 1544.445 928.44 1545.255 910.297 1560.297 895.442 C 1593.673 862.066 1556.415 855.596 1556.415 870.208 C 1556.415 881.477 1546.467 874.333 1537.004 883.796 Z " fill="none" vector-effect="non-scaling-stroke" stroke-width="10" stroke="rgb(255,255,255)" stroke-linejoin="miter" stroke-linecap="square" stroke-miterlimit="3"/></g><g><path d=" M 1372.317 1231.796 C 1327.726 1276.386 1376.933 1251.839 1367.464 1313.321 C 1367.464 1329.119 1351.127 1325.776 1334.466 1342.437 C 1307.021 1369.881 1342.23 1392.419 1342.23 1369.612 C 1342.23 1358.208 1350.399 1356.024 1362.611 1356.024 C 1373.449 1356.024 1385.904 1346.319 1385.904 1333.702 C 1385.904 1316.96 1390.433 1313.644 1403.374 1300.704 C 1418.093 1285.984 1406.447 1276.44 1395.609 1276.44 C 1379.757 1276.44 1380.568 1258.297 1395.609 1243.442 C 1428.985 1210.066 1391.727 1203.596 1391.727 1218.208 C 1391.727 1229.477 1381.779 1222.333 1372.317 1231.796 Z " fill="none" vector-effect="non-scaling-stroke" stroke-width="10" stroke="rgb(255,255,255)" stroke-linejoin="miter" stroke-linecap="square" stroke-miterlimit="3"/><path d=" M 1466.317 1114.957 C 1421.726 1159.547 1470.933 1135 1461.464 1196.482 C 1461.464 1212.28 1445.126 1208.937 1428.466 1225.598 C 1401.021 1253.042 1436.23 1275.58 1436.23 1252.773 C 1436.23 1241.369 1444.399 1239.185 1456.611 1239.185 C 1467.449 1239.185 1479.904 1229.48 1479.904 1216.863 C 1479.904 1200.121 1484.433 1196.805 1497.374 1183.865 C 1512.093 1169.145 1500.447 1159.601 1489.609 1159.601 C 1473.757 1159.601 1474.568 1141.458 1489.609 1126.603 C 1522.985 1093.227 1485.727 1086.757 1485.727 1101.369 C 1485.727 1112.638 1475.779 1105.494 1466.317 1114.957 Z " fill="none" vector-effect="non-scaling-stroke" stroke-width="10" stroke="rgb(255,255,255)" stroke-linejoin="miter" stroke-linecap="square" stroke-miterlimit="3"/><path d=" M 1565.004 999.796 C 1520.413 1044.386 1569.62 1019.839 1560.152 1081.321 C 1560.152 1097.119 1543.814 1093.776 1527.153 1110.437 C 1499.709 1137.881 1534.918 1160.419 1534.918 1137.612 C 1534.918 1126.208 1543.086 1124.024 1555.299 1124.024 C 1566.136 1124.024 1578.592 1114.319 1578.592 1101.702 C 1578.592 1084.96 1583.121 1081.644 1596.061 1068.704 C 1610.781 1053.984 1599.135 1044.44 1588.297 1044.44 C 1572.445 1044.44 1573.255 1026.297 1588.297 1011.442 C 1621.673 978.066 1584.415 971.596 1584.415 986.208 C 1584.415 997.477 1574.467 990.333 1565.004 999.796 Z " fill="none" vector-effect="non-scaling-stroke" stroke-width="10" stroke="rgb(255,255,255)" stroke-linejoin="miter" stroke-linecap="square" stroke-miterlimit="3"/></g><g><path d=" M 1496.817 1241.796 C 1452.226 1286.386 1501.433 1261.839 1491.964 1323.321 C 1491.964 1339.119 1475.626 1335.776 1458.966 1352.437 C 1431.521 1379.881 1466.73 1402.419 1466.73 1379.612 C 1466.73 1368.208 1474.899 1366.024 1487.111 1366.024 C 1497.949 1366.024 1510.404 1356.319 1510.404 1343.702 C 1510.404 1326.96 1514.933 1323.644 1527.874 1310.704 C 1542.593 1295.984 1530.947 1286.44 1520.109 1286.44 C 1504.257 1286.44 1505.068 1268.297 1520.109 1253.442 C 1553.485 1220.066 1516.227 1213.596 1516.227 1228.208 C 1516.227 1239.477 1506.279 1232.333 1496.817 1241.796 Z " fill="none" vector-effect="non-scaling-stroke" stroke-width="10" stroke="rgb(255,255,255)" stroke-linejoin="miter" stroke-linecap="square" stroke-miterlimit="3"/><path d=" M 1590.817 1124.957 C 1546.226 1169.547 1595.433 1145 1585.964 1206.482 C 1585.964 1222.28 1569.626 1218.937 1552.966 1235.598 C 1525.521 1263.042 1560.73 1285.58 1560.73 1262.773 C 1560.73 1251.369 1568.899 1249.185 1581.111 1249.185 C 1591.949 1249.185 1604.404 1239.48 1604.404 1226.863 C 1604.404 1210.121 1608.933 1206.805 1621.874 1193.865 C 1636.593 1179.145 1624.947 1169.601 1614.109 1169.601 C 1598.257 1169.601 1599.068 1151.458 1614.109 1136.603 C 1647.485 1103.227 1610.227 1096.757 1610.227 1111.369 C 1610.227 1122.638 1600.279 1115.494 1590.817 1124.957 Z " fill="none" vector-effect="non-scaling-stroke" stroke-width="10" stroke="rgb(255,255,255)" stroke-linejoin="miter" stroke-linecap="square" stroke-miterlimit="3"/><path d=" M 1689.504 1009.796 C 1644.913 1054.386 1694.12 1029.839 1684.652 1091.321 C 1684.652 1107.119 1668.314 1103.776 1651.653 1120.437 C 1624.209 1147.881 1659.418 1170.419 1659.418 1147.612 C 1659.418 1136.208 1667.586 1134.024 1679.799 1134.024 C 1690.636 1134.024 1703.092 1124.319 1703.092 1111.702 C 1703.092 1094.96 1707.621 1091.644 1720.561 1078.704 C 1735.281 1063.984 1723.635 1054.44 1712.797 1054.44 C 1696.945 1054.44 1697.755 1036.297 1712.797 1021.442 C 1746.173 988.066 1708.915 981.596 1708.915 996.208 C 1708.915 1007.477 1698.967 1000.333 1689.504 1009.796 Z " fill="none" vector-effect="non-scaling-stroke" stroke-width="10" stroke="rgb(255,255,255)" stroke-linejoin="miter" stroke-linecap="square" stroke-miterlimit="3"/></g><g><path d=" M 1688.317 1147.715 C 1643.726 1192.306 1692.933 1167.758 1683.464 1229.24 C 1683.464 1245.038 1667.127 1241.695 1650.466 1258.356 C 1623.021 1285.801 1658.23 1308.339 1658.23 1285.531 C 1658.23 1274.127 1666.399 1271.944 1678.611 1271.944 C 1689.449 1271.944 1701.904 1262.238 1701.904 1249.621 C 1701.904 1232.88 1706.433 1229.564 1719.374 1216.623 C 1734.093 1201.903 1722.447 1192.36 1711.609 1192.36 C 1695.757 1192.36 1696.568 1174.216 1711.609 1159.362 C 1744.985 1125.986 1707.727 1119.516 1707.727 1134.128 C 1707.727 1145.397 1697.779 1138.252 1688.317 1147.715 Z " fill="none" vector-effect="non-scaling-stroke" stroke-width="10" stroke="rgb(255,255,255)" stroke-linejoin="miter" stroke-linecap="square" stroke-miterlimit="3"/><path d=" M 1782.317 1030.876 C 1737.726 1075.467 1786.933 1050.92 1777.464 1112.401 C 1777.464 1128.199 1761.127 1124.856 1744.466 1141.517 C 1717.021 1168.962 1752.23 1191.5 1752.23 1168.692 C 1752.23 1157.288 1760.399 1155.105 1772.611 1155.105 C 1783.449 1155.105 1795.904 1145.399 1795.904 1132.782 C 1795.904 1116.041 1800.433 1112.725 1813.374 1099.784 C 1828.093 1085.064 1816.447 1075.521 1805.609 1075.521 C 1789.757 1075.521 1790.568 1057.377 1805.609 1042.523 C 1838.985 1009.147 1801.727 1002.677 1801.727 1017.289 C 1801.727 1028.558 1791.779 1021.413 1782.317 1030.876 Z " fill="none" vector-effect="non-scaling-stroke" stroke-width="10" stroke="rgb(255,255,255)" stroke-linejoin="miter" stroke-linecap="square" stroke-miterlimit="3"/><path d=" M 1881.004 915.715 C 1836.413 960.306 1885.62 935.758 1876.152 997.24 C 1876.152 1013.038 1859.814 1009.695 1843.153 1026.356 C 1815.709 1053.801 1850.918 1076.339 1850.918 1053.531 C 1850.918 1042.127 1859.086 1039.944 1871.299 1039.944 C 1882.136 1039.944 1894.592 1030.238 1894.592 1017.621 C 1894.592 1000.88 1899.121 997.564 1912.061 984.623 C 1926.781 969.903 1915.135 960.36 1904.297 960.36 C 1888.445 960.36 1889.255 942.216 1904.297 927.362 C 1937.673 893.986 1900.415 887.516 1900.415 902.128 C 1900.415 913.397 1890.467 906.252 1881.004 915.715 Z " fill="none" vector-effect="non-scaling-stroke" stroke-width="10" stroke="rgb(255,255,255)" stroke-linejoin="miter" stroke-linecap="square" stroke-miterlimit="3"/></g><g><path d=" M 1702.317 1273.796 C 1657.726 1318.386 1706.933 1293.839 1697.464 1355.321 C 1697.464 1371.119 1681.127 1367.776 1664.466 1384.437 C 1637.021 1411.881 1672.23 1434.419 1672.23 1411.612 C 1672.23 1400.208 1680.399 1398.024 1692.611 1398.024 C 1703.449 1398.024 1715.904 1388.319 1715.904 1375.702 C 1715.904 1358.96 1720.433 1355.644 1733.374 1342.704 C 1748.093 1327.984 1736.447 1318.44 1725.609 1318.44 C 1709.757 1318.44 1710.568 1300.297 1725.609 1285.442 C 1758.985 1252.066 1721.727 1245.596 1721.727 1260.208 C 1721.727 1271.477 1711.779 1264.333 1702.317 1273.796 Z " fill="none" vector-effect="non-scaling-stroke" stroke-width="10" stroke="rgb(255,255,255)" stroke-linejoin="miter" stroke-linecap="square" stroke-miterlimit="3"/><path d=" M 1796.317 1156.957 C 1751.726 1201.547 1800.933 1177 1791.464 1238.482 C 1791.464 1254.28 1775.127 1250.937 1758.466 1267.598 C 1731.021 1295.042 1766.23 1317.58 1766.23 1294.773 C 1766.23 1283.369 1774.399 1281.185 1786.611 1281.185 C 1797.449 1281.185 1809.904 1271.48 1809.904 1258.863 C 1809.904 1242.121 1814.433 1238.805 1827.374 1225.865 C 1842.093 1211.145 1830.447 1201.601 1819.609 1201.601 C 1803.757 1201.601 1804.568 1183.458 1819.609 1168.603 C 1852.985 1135.227 1815.727 1128.757 1815.727 1143.369 C 1815.727 1154.638 1805.779 1147.494 1796.317 1156.957 Z " fill="none" vector-effect="non-scaling-stroke" stroke-width="10" stroke="rgb(255,255,255)" stroke-linejoin="miter" stroke-linecap="square" stroke-miterlimit="3"/><path d=" M 1895.004 1041.796 C 1850.413 1086.386 1899.62 1061.839 1890.152 1123.321 C 1890.152 1139.119 1873.814 1135.776 1857.153 1152.437 C 1829.709 1179.881 1864.918 1202.419 1864.918 1179.612 C 1864.918 1168.208 1873.086 1166.024 1885.299 1166.024 C 1896.136 1166.024 1908.592 1156.319 1908.592 1143.702 C 1908.592 1126.96 1913.121 1123.644 1926.061 1110.704 C 1940.781 1095.984 1929.135 1086.44 1918.297 1086.44 C 1902.445 1086.44 1903.255 1068.297 1918.297 1053.442 C 1951.673 1020.066 1914.415 1013.596 1914.415 1028.208 C 1914.415 1039.477 1904.467 1032.333 1895.004 1041.796 Z " fill="none" vector-effect="non-scaling-stroke" stroke-width="10" stroke="rgb(255,255,255)" stroke-linejoin="miter" stroke-linecap="square" stroke-miterlimit="3"/></g><g><path d=" M 1799.817 1295.957 C 1755.226 1340.547 1804.433 1316 1794.964 1377.482 C 1794.964 1393.28 1778.627 1389.937 1761.966 1406.598 C 1734.521 1434.042 1769.73 1456.58 1769.73 1433.773 C 1769.73 1422.369 1777.899 1420.185 1790.111 1420.185 C 1800.949 1420.185 1813.404 1410.48 1813.404 1397.863 C 1813.404 1381.121 1817.933 1377.805 1830.874 1364.865 C 1845.593 1350.145 1833.947 1340.601 1823.109 1340.601 C 1807.257 1340.601 1808.068 1322.458 1823.109 1307.603 C 1856.485 1274.227 1819.227 1267.757 1819.227 1282.369 C 1819.227 1293.638 1809.279 1286.494 1799.817 1295.957 Z " fill="none" vector-effect="non-scaling-stroke" stroke-width="10" stroke="rgb(255,255,255)" stroke-linejoin="miter" stroke-linecap="square" stroke-miterlimit="3"/><path d=" M 1893.817 1179.118 C 1849.226 1223.708 1898.433 1199.161 1888.964 1260.643 C 1888.964 1276.441 1872.626 1273.098 1855.966 1289.759 C 1828.521 1317.203 1863.73 1339.741 1863.73 1316.934 C 1863.73 1305.53 1871.899 1303.346 1884.111 1303.346 C 1894.949 1303.346 1907.404 1293.641 1907.404 1281.024 C 1907.404 1264.282 1911.933 1260.966 1924.874 1248.026 C 1939.593 1233.306 1927.947 1223.762 1917.109 1223.762 C 1901.257 1223.762 1902.068 1205.619 1917.109 1190.764 C 1950.485 1157.388 1913.227 1150.918 1913.227 1165.53 C 1913.227 1176.799 1903.279 1169.655 1893.817 1179.118 Z " fill="none" vector-effect="non-scaling-stroke" stroke-width="10" stroke="rgb(255,255,255)" stroke-linejoin="miter" stroke-linecap="square" stroke-miterlimit="3"/><path d=" M 1992.504 1063.957 C 1947.913 1108.547 1997.12 1084 1987.652 1145.482 C 1987.652 1161.28 1971.314 1157.937 1954.653 1174.598 C 1927.209 1202.042 1962.418 1224.58 1962.418 1201.773 C 1962.418 1190.369 1970.586 1188.185 1982.799 1188.185 C 1993.636 1188.185 2006.092 1178.48 2006.092 1165.863 C 2006.092 1149.121 2010.621 1145.805 2023.561 1132.865 C 2038.281 1118.145 2026.635 1108.601 2015.797 1108.601 C 1999.945 1108.601 2000.755 1090.458 2015.797 1075.603 C 2049.173 1042.227 2011.915 1035.757 2011.915 1050.369 C 2011.915 1061.638 2001.967 1054.494 1992.504 1063.957 Z " fill="none" vector-effect="non-scaling-stroke" stroke-width="10" stroke="rgb(255,255,255)" stroke-linejoin="miter" stroke-linecap="square" stroke-miterlimit="3"/></g><g><path d=" M 1967.317 814.957 C 1922.726 859.547 1971.933 835 1962.464 896.482 C 1962.464 912.28 1946.127 908.937 1929.466 925.598 C 1902.021 953.042 1937.23 975.58 1937.23 952.773 C 1937.23 941.369 1945.399 939.185 1957.611 939.185 C 1968.449 939.185 1980.904 929.48 1980.904 916.863 C 1980.904 900.121 1985.433 896.805 1998.374 883.865 C 2013.093 869.145 2001.447 859.601 1990.609 859.601 C 1974.757 859.601 1975.568 841.458 1990.609 826.603 C 2023.985 793.227 1986.727 786.757 1986.727 801.369 C 1986.727 812.638 1976.779 805.494 1967.317 814.957 Z " fill="none" vector-effect="non-scaling-stroke" stroke-width="10" stroke="rgb(255,255,255)" stroke-linejoin="miter" stroke-linecap="square" stroke-miterlimit="3"/><path d=" M 2061.317 698.118 C 2016.726 742.708 2065.933 718.161 2056.464 779.643 C 2056.464 795.441 2040.126 792.098 2023.466 808.759 C 1996.021 836.203 2031.23 858.741 2031.23 835.934 C 2031.23 824.53 2039.399 822.346 2051.611 822.346 C 2062.449 822.346 2074.904 812.641 2074.904 800.024 C 2074.904 783.282 2079.433 779.966 2092.374 767.026 C 2107.093 752.306 2095.447 742.762 2084.609 742.762 C 2068.757 742.762 2069.568 724.619 2084.609 709.764 C 2117.985 676.388 2080.727 669.918 2080.727 684.53 C 2080.727 695.799 2070.779 688.655 2061.317 698.118 Z " fill="none" vector-effect="non-scaling-stroke" stroke-width="10" stroke="rgb(255,255,255)" stroke-linejoin="miter" stroke-linecap="square" stroke-miterlimit="3"/><path d=" M 2160.004 582.957 C 2115.413 627.547 2164.62 603 2155.152 664.482 C 2155.152 680.28 2138.814 676.937 2122.153 693.598 C 2094.709 721.042 2129.918 743.58 2129.918 720.773 C 2129.918 709.369 2138.086 707.185 2150.299 707.185 C 2161.136 707.185 2173.592 697.48 2173.592 684.863 C 2173.592 668.121 2178.121 664.805 2191.061 651.865 C 2205.781 637.145 2194.135 627.601 2183.297 627.601 C 2167.445 627.601 2168.255 609.458 2183.297 594.603 C 2216.673 561.227 2179.415 554.757 2179.415 569.369 C 2179.415 580.638 2169.467 573.494 2160.004 582.957 Z " fill="none" vector-effect="non-scaling-stroke" stroke-width="10" stroke="rgb(255,255,255)" stroke-linejoin="miter" stroke-linecap="square" stroke-miterlimit="3"/></g><g><path d=" M 1775.817 895.796 C 1731.226 940.386 1780.433 915.839 1770.964 977.321 C 1770.964 993.119 1754.626 989.776 1737.966 1006.437 C 1710.521 1033.881 1745.73 1056.419 1745.73 1033.612 C 1745.73 1022.208 1753.899 1020.024 1766.111 1020.024 C 1776.949 1020.024 1789.404 1010.319 1789.404 997.702 C 1789.404 980.96 1793.933 977.644 1806.874 964.704 C 1821.593 949.984 1809.947 940.44 1799.109 940.44 C 1783.257 940.44 1784.068 922.297 1799.109 907.442 C 1832.485 874.066 1795.227 867.596 1795.227 882.208 C 1795.227 893.477 1785.279 886.333 1775.817 895.796 Z " fill="none" vector-effect="non-scaling-stroke" stroke-width="10" stroke="rgb(255,255,255)" stroke-linejoin="miter" stroke-linecap="square" stroke-miterlimit="3"/><path d=" M 1869.817 778.957 C 1825.226 823.547 1874.433 799 1864.964 860.482 C 1864.964 876.28 1848.626 872.937 1831.966 889.598 C 1804.521 917.042 1839.73 939.58 1839.73 916.773 C 1839.73 905.369 1847.899 903.185 1860.111 903.185 C 1870.949 903.185 1883.404 893.48 1883.404 880.863 C 1883.404 864.121 1887.933 860.805 1900.874 847.865 C 1915.593 833.145 1903.947 823.601 1893.109 823.601 C 1877.257 823.601 1878.068 805.458 1893.109 790.603 C 1926.485 757.227 1889.227 750.757 1889.227 765.369 C 1889.227 776.638 1879.279 769.494 1869.817 778.957 Z " fill="none" vector-effect="non-scaling-stroke" stroke-width="10" stroke="rgb(255,255,255)" stroke-linejoin="miter" stroke-linecap="square" stroke-miterlimit="3"/><path d=" M 1968.504 663.796 C 1923.913 708.386 1973.12 683.839 1963.652 745.321 C 1963.652 761.119 1947.314 757.776 1930.653 774.437 C 1903.209 801.881 1938.418 824.419 1938.418 801.612 C 1938.418 790.208 1946.586 788.024 1958.799 788.024 C 1969.636 788.024 1982.092 778.319 1982.092 765.702 C 1982.092 748.96 1986.621 745.644 1999.561 732.704 C 2014.281 717.984 2002.635 708.44 1991.797 708.44 C 1975.945 708.44 1976.755 690.297 1991.797 675.442 C 2025.173 642.066 1987.915 635.596 1987.915 650.208 C 1987.915 661.477 1977.967 654.333 1968.504 663.796 Z " fill="none" vector-effect="non-scaling-stroke" stroke-width="10" stroke="rgb(255,255,255)" stroke-linejoin="miter" stroke-linecap="square" stroke-miterlimit="3"/></g><g><path d=" M 1939.317 537.796 C 1894.726 582.386 1943.933 557.839 1934.464 619.321 C 1934.464 635.119 1918.127 631.776 1901.466 648.437 C 1874.021 675.881 1909.23 698.419 1909.23 675.612 C 1909.23 664.208 1917.399 662.024 1929.611 662.024 C 1940.449 662.024 1952.904 652.319 1952.904 639.702 C 1952.904 622.96 1957.433 619.644 1970.374 606.704 C 1985.093 591.984 1973.447 582.44 1962.609 582.44 C 1946.757 582.44 1947.568 564.297 1962.609 549.442 C 1995.985 516.066 1958.727 509.596 1958.727 524.208 C 1958.727 535.477 1948.779 528.333 1939.317 537.796 Z " fill="none" vector-effect="non-scaling-stroke" stroke-width="10" stroke="rgb(255,255,255)" stroke-linejoin="miter" stroke-linecap="square" stroke-miterlimit="3"/><path d=" M 2033.317 420.957 C 1988.726 465.547 2037.933 441 2028.464 502.482 C 2028.464 518.28 2012.126 514.937 1995.466 531.598 C 1968.021 559.042 2003.23 581.58 2003.23 558.773 C 2003.23 547.369 2011.399 545.185 2023.611 545.185 C 2034.449 545.185 2046.904 535.48 2046.904 522.863 C 2046.904 506.121 2051.433 502.805 2064.374 489.865 C 2079.093 475.145 2067.447 465.601 2056.609 465.601 C 2040.757 465.601 2041.568 447.458 2056.609 432.603 C 2089.985 399.227 2052.727 392.757 2052.727 407.369 C 2052.727 418.638 2042.779 411.494 2033.317 420.957 Z " fill="none" vector-effect="non-scaling-stroke" stroke-width="10" stroke="rgb(255,255,255)" stroke-linejoin="miter" stroke-linecap="square" stroke-miterlimit="3"/><path d=" M 2132.004 305.796 C 2087.413 350.386 2136.62 325.839 2127.152 387.321 C 2127.152 403.119 2110.814 399.776 2094.153 416.437 C 2066.709 443.881 2101.918 466.419 2101.918 443.612 C 2101.918 432.208 2110.086 430.024 2122.299 430.024 C 2133.136 430.024 2145.592 420.319 2145.592 407.702 C 2145.592 390.96 2150.121 387.644 2163.061 374.704 C 2177.781 359.984 2166.135 350.44 2155.297 350.44 C 2139.445 350.44 2140.255 332.297 2155.297 317.442 C 2188.673 284.066 2151.415 277.596 2151.415 292.208 C 2151.415 303.477 2141.467 296.333 2132.004 305.796 Z " fill="none" vector-effect="non-scaling-stroke" stroke-width="10" stroke="rgb(255,255,255)" stroke-linejoin="miter" stroke-linecap="square" stroke-miterlimit="3"/></g><g><path d=" M 1902.317 426.715 C 1857.726 471.306 1906.933 446.758 1897.464 508.24 C 1897.464 524.038 1881.126 520.695 1864.466 537.356 C 1837.021 564.801 1872.23 587.339 1872.23 564.531 C 1872.23 553.127 1880.399 550.944 1892.611 550.944 C 1903.449 550.944 1915.904 541.238 1915.904 528.621 C 1915.904 511.88 1920.433 508.564 1933.374 495.623 C 1948.093 480.903 1936.447 471.36 1925.609 471.36 C 1909.757 471.36 1910.568 453.216 1925.609 438.362 C 1958.985 404.986 1921.727 398.516 1921.727 413.128 C 1921.727 424.397 1911.779 417.252 1902.317 426.715 Z " fill="none" vector-effect="non-scaling-stroke" stroke-width="10" stroke="rgb(255,255,255)" stroke-linejoin="miter" stroke-linecap="square" stroke-miterlimit="3"/><path d=" M 1996.317 309.876 C 1951.726 354.467 2000.933 329.92 1991.464 391.401 C 1991.464 407.199 1975.126 403.856 1958.466 420.517 C 1931.021 447.962 1966.23 470.5 1966.23 447.692 C 1966.23 436.288 1974.399 434.105 1986.611 434.105 C 1997.449 434.105 2009.904 424.399 2009.904 411.782 C 2009.904 395.041 2014.433 391.725 2027.374 378.784 C 2042.093 364.064 2030.447 354.521 2019.609 354.521 C 2003.757 354.521 2004.568 336.377 2019.609 321.523 C 2052.985 288.147 2015.727 281.677 2015.727 296.289 C 2015.727 307.558 2005.779 300.413 1996.317 309.876 Z " fill="none" vector-effect="non-scaling-stroke" stroke-width="10" stroke="rgb(255,255,255)" stroke-linejoin="miter" stroke-linecap="square" stroke-miterlimit="3"/><path d=" M 2095.004 194.715 C 2050.413 239.306 2099.62 214.758 2090.152 276.24 C 2090.152 292.038 2073.814 288.695 2057.153 305.356 C 2029.709 332.801 2064.918 355.339 2064.918 332.531 C 2064.918 321.127 2073.086 318.944 2085.299 318.944 C 2096.136 318.944 2108.592 309.238 2108.592 296.621 C 2108.592 279.88 2113.121 276.564 2126.061 263.623 C 2140.781 248.903 2129.135 239.36 2118.297 239.36 C 2102.445 239.36 2103.255 221.216 2118.297 206.362 C 2151.673 172.986 2114.415 166.516 2114.415 181.128 C 2114.415 192.397 2104.467 185.252 2095.004 194.715 Z " fill="none" vector-effect="non-scaling-stroke" stroke-width="10" stroke="rgb(255,255,255)" stroke-linejoin="miter" stroke-linecap="square" stroke-miterlimit="3"/></g><g><path d=" M 1876.317 300.796 C 1831.726 345.386 1880.933 320.839 1871.464 382.321 C 1871.464 398.119 1855.126 394.776 1838.466 411.437 C 1811.021 438.881 1846.23 461.419 1846.23 438.612 C 1846.23 427.208 1854.399 425.024 1866.611 425.024 C 1877.449 425.024 1889.904 415.319 1889.904 402.702 C 1889.904 385.96 1894.433 382.644 1907.374 369.704 C 1922.093 354.984 1910.447 345.44 1899.609 345.44 C 1883.757 345.44 1884.568 327.297 1899.609 312.442 C 1932.985 279.066 1895.727 272.596 1895.727 287.208 C 1895.727 298.477 1885.779 291.333 1876.317 300.796 Z " fill="none" vector-effect="non-scaling-stroke" stroke-width="10" stroke="rgb(255,255,255)" stroke-linejoin="miter" stroke-linecap="square" stroke-miterlimit="3"/><path d=" M 1970.317 183.957 C 1925.726 228.547 1974.933 204 1965.464 265.482 C 1965.464 281.28 1949.126 277.937 1932.466 294.598 C 1905.021 322.042 1940.23 344.58 1940.23 321.773 C 1940.23 310.369 1948.399 308.185 1960.611 308.185 C 1971.449 308.185 1983.904 298.48 1983.904 285.863 C 1983.904 269.121 1988.433 265.805 2001.374 252.865 C 2016.093 238.145 2004.447 228.601 1993.609 228.601 C 1977.757 228.601 1978.568 210.458 1993.609 195.603 C 2026.985 162.227 1989.727 155.757 1989.727 170.369 C 1989.727 181.638 1979.779 174.494 1970.317 183.957 Z " fill="none" vector-effect="non-scaling-stroke" stroke-width="10" stroke="rgb(255,255,255)" stroke-linejoin="miter" stroke-linecap="square" stroke-miterlimit="3"/><path d=" M 2069.004 68.796 C 2024.413 113.386 2073.62 88.839 2064.152 150.321 C 2064.152 166.119 2047.814 162.776 2031.153 179.437 C 2003.709 206.881 2038.918 229.419 2038.918 206.612 C 2038.918 195.208 2047.086 193.024 2059.299 193.024 C 2070.136 193.024 2082.592 183.319 2082.592 170.702 C 2082.592 153.96 2087.121 150.644 2100.061 137.704 C 2114.781 122.984 2103.135 113.44 2092.297 113.44 C 2076.445 113.44 2077.255 95.297 2092.297 80.442 C 2125.673 47.066 2088.415 40.596 2088.415 55.208 C 2088.415 66.477 2078.467 59.333 2069.004 68.796 Z " fill="none" vector-effect="non-scaling-stroke" stroke-width="10" stroke="rgb(255,255,255)" stroke-linejoin="miter" stroke-linecap="square" stroke-miterlimit="3"/></g><g><path d=" M 1660.317 883.957 C 1615.726 928.547 1664.933 904 1655.464 965.482 C 1655.464 981.28 1639.127 977.937 1622.466 994.598 C 1595.021 1022.042 1630.23 1044.58 1630.23 1021.773 C 1630.23 1010.369 1638.399 1008.185 1650.611 1008.185 C 1661.449 1008.185 1673.904 998.48 1673.904 985.863 C 1673.904 969.121 1678.433 965.805 1691.374 952.865 C 1706.093 938.145 1694.447 928.601 1683.609 928.601 C 1667.757 928.601 1668.568 910.458 1683.609 895.603 C 1716.985 862.227 1679.727 855.757 1679.727 870.369 C 1679.727 881.638 1669.779 874.494 1660.317 883.957 Z " fill="none" vector-effect="non-scaling-stroke" stroke-width="10" stroke="rgb(255,255,255)" stroke-linejoin="miter" stroke-linecap="square" stroke-miterlimit="3"/><path d=" M 1754.317 767.118 C 1709.726 811.708 1758.933 787.161 1749.464 848.643 C 1749.464 864.441 1733.127 861.098 1716.466 877.759 C 1689.021 905.203 1724.23 927.741 1724.23 904.934 C 1724.23 893.53 1732.399 891.346 1744.611 891.346 C 1755.449 891.346 1767.904 881.641 1767.904 869.024 C 1767.904 852.282 1772.433 848.966 1785.374 836.026 C 1800.093 821.306 1788.447 811.762 1777.609 811.762 C 1761.757 811.762 1762.568 793.619 1777.609 778.764 C 1810.985 745.388 1773.727 738.918 1773.727 753.53 C 1773.727 764.799 1763.779 757.655 1754.317 767.118 Z " fill="none" vector-effect="non-scaling-stroke" stroke-width="10" stroke="rgb(255,255,255)" stroke-linejoin="miter" stroke-linecap="square" stroke-miterlimit="3"/><path d=" M 1853.004 651.957 C 1808.413 696.547 1857.62 672 1848.152 733.482 C 1848.152 749.28 1831.814 745.937 1815.153 762.598 C 1787.709 790.042 1822.918 812.58 1822.918 789.773 C 1822.918 778.369 1831.086 776.185 1843.299 776.185 C 1854.136 776.185 1866.592 766.48 1866.592 753.863 C 1866.592 737.121 1871.121 733.805 1884.061 720.865 C 1898.781 706.145 1887.135 696.601 1876.297 696.601 C 1860.445 696.601 1861.255 678.458 1876.297 663.603 C 1909.673 630.227 1872.415 623.757 1872.415 638.369 C 1872.415 649.638 1862.467 642.494 1853.004 651.957 Z " fill="none" vector-effect="non-scaling-stroke" stroke-width="10" stroke="rgb(255,255,255)" stroke-linejoin="miter" stroke-linecap="square" stroke-miterlimit="3"/></g><g><path d=" M 1623.317 769.957 C 1578.726 814.547 1627.933 790 1618.464 851.482 C 1618.464 867.28 1602.126 863.937 1585.466 880.598 C 1558.021 908.042 1593.23 930.58 1593.23 907.773 C 1593.23 896.369 1601.399 894.185 1613.611 894.185 C 1624.449 894.185 1636.904 884.48 1636.904 871.863 C 1636.904 855.121 1641.433 851.805 1654.374 838.865 C 1669.093 824.145 1657.447 814.601 1646.609 814.601 C 1630.757 814.601 1631.568 796.458 1646.609 781.603 C 1679.985 748.227 1642.727 741.757 1642.727 756.369 C 1642.727 767.638 1632.779 760.494 1623.317 769.957 Z " fill="none" vector-effect="non-scaling-stroke" stroke-width="10" stroke="rgb(255,255,255)" stroke-linejoin="miter" stroke-linecap="square" stroke-miterlimit="3"/><path d=" M 1717.317 653.118 C 1672.726 697.708 1721.933 673.161 1712.464 734.643 C 1712.464 750.441 1696.126 747.098 1679.466 763.759 C 1652.021 791.203 1687.23 813.741 1687.23 790.934 C 1687.23 779.53 1695.399 777.346 1707.611 777.346 C 1718.449 777.346 1730.904 767.641 1730.904 755.024 C 1730.904 738.282 1735.433 734.966 1748.374 722.026 C 1763.093 707.306 1751.447 697.762 1740.609 697.762 C 1724.757 697.762 1725.568 679.619 1740.609 664.764 C 1773.985 631.388 1736.727 624.918 1736.727 639.53 C 1736.727 650.799 1726.779 643.655 1717.317 653.118 Z " fill="none" vector-effect="non-scaling-stroke" stroke-width="10" stroke="rgb(255,255,255)" stroke-linejoin="miter" stroke-linecap="square" stroke-miterlimit="3"/><path d=" M 1816.004 537.957 C 1771.413 582.547 1820.62 558 1811.152 619.482 C 1811.152 635.28 1794.814 631.937 1778.153 648.598 C 1750.709 676.042 1785.918 698.58 1785.918 675.773 C 1785.918 664.369 1794.086 662.185 1806.299 662.185 C 1817.136 662.185 1829.592 652.48 1829.592 639.863 C 1829.592 623.121 1834.121 619.805 1847.061 606.865 C 1861.781 592.145 1850.135 582.601 1839.297 582.601 C 1823.445 582.601 1824.255 564.458 1839.297 549.603 C 1872.673 516.227 1835.415 509.757 1835.415 524.369 C 1835.415 535.638 1825.467 528.494 1816.004 537.957 Z " fill="none" vector-effect="non-scaling-stroke" stroke-width="10" stroke="rgb(255,255,255)" stroke-linejoin="miter" stroke-linecap="square" stroke-miterlimit="3"/></g><g><path d=" M 1597.317 653.796 C 1552.726 698.386 1601.933 673.839 1592.464 735.321 C 1592.464 751.119 1576.126 747.776 1559.466 764.437 C 1532.021 791.881 1567.23 814.419 1567.23 791.612 C 1567.23 780.208 1575.399 778.024 1587.611 778.024 C 1598.449 778.024 1610.904 768.319 1610.904 755.702 C 1610.904 738.96 1615.433 735.644 1628.374 722.704 C 1643.093 707.984 1631.447 698.44 1620.609 698.44 C 1604.757 698.44 1605.568 680.297 1620.609 665.442 C 1653.985 632.066 1616.727 625.596 1616.727 640.208 C 1616.727 651.477 1606.779 644.333 1597.317 653.796 Z " fill="none" vector-effect="non-scaling-stroke" stroke-width="10" stroke="rgb(255,255,255)" stroke-linejoin="miter" stroke-linecap="square" stroke-miterlimit="3"/><path d=" M 1691.317 536.957 C 1646.726 581.547 1695.933 557 1686.464 618.482 C 1686.464 634.28 1670.126 630.937 1653.466 647.598 C 1626.021 675.042 1661.23 697.58 1661.23 674.773 C 1661.23 663.369 1669.399 661.185 1681.611 661.185 C 1692.449 661.185 1704.904 651.48 1704.904 638.863 C 1704.904 622.121 1709.433 618.805 1722.374 605.865 C 1737.093 591.145 1725.447 581.601 1714.609 581.601 C 1698.757 581.601 1699.568 563.458 1714.609 548.603 C 1747.985 515.227 1710.727 508.757 1710.727 523.369 C 1710.727 534.638 1700.779 527.494 1691.317 536.957 Z " fill="none" vector-effect="non-scaling-stroke" stroke-width="10" stroke="rgb(255,255,255)" stroke-linejoin="miter" stroke-linecap="square" stroke-miterlimit="3"/><path d=" M 1790.004 421.796 C 1745.413 466.386 1794.62 441.839 1785.152 503.321 C 1785.152 519.119 1768.814 515.776 1752.153 532.437 C 1724.709 559.881 1759.918 582.419 1759.918 559.612 C 1759.918 548.208 1768.086 546.024 1780.299 546.024 C 1791.136 546.024 1803.592 536.319 1803.592 523.702 C 1803.592 506.96 1808.121 503.644 1821.061 490.704 C 1835.781 475.984 1824.135 466.44 1813.297 466.44 C 1797.445 466.44 1798.255 448.297 1813.297 433.442 C 1846.673 400.066 1809.415 393.596 1809.415 408.208 C 1809.415 419.477 1799.467 412.333 1790.004 421.796 Z " fill="none" vector-effect="non-scaling-stroke" stroke-width="10" stroke="rgb(255,255,255)" stroke-linejoin="miter" stroke-linecap="square" stroke-miterlimit="3"/></g><g><path d=" M 1589.317 508.796 C 1544.726 553.386 1593.933 528.839 1584.464 590.321 C 1584.464 606.119 1568.127 602.776 1551.466 619.437 C 1524.021 646.881 1559.23 669.419 1559.23 646.612 C 1559.23 635.208 1567.399 633.024 1579.611 633.024 C 1590.449 633.024 1602.904 623.319 1602.904 610.702 C 1602.904 593.96 1607.433 590.644 1620.374 577.704 C 1635.093 562.984 1623.447 553.44 1612.609 553.44 C 1596.757 553.44 1597.568 535.297 1612.609 520.442 C 1645.985 487.066 1608.727 480.596 1608.727 495.208 C 1608.727 506.477 1598.779 499.333 1589.317 508.796 Z " fill="none" vector-effect="non-scaling-stroke" stroke-width="10" stroke="rgb(255,255,255)" stroke-linejoin="miter" stroke-linecap="square" stroke-miterlimit="3"/><path d=" M 1683.317 391.957 C 1638.726 436.547 1687.933 412 1678.464 473.482 C 1678.464 489.28 1662.126 485.937 1645.466 502.598 C 1618.021 530.042 1653.23 552.58 1653.23 529.773 C 1653.23 518.369 1661.399 516.185 1673.611 516.185 C 1684.449 516.185 1696.904 506.48 1696.904 493.863 C 1696.904 477.121 1701.433 473.805 1714.374 460.865 C 1729.093 446.145 1717.447 436.601 1706.609 436.601 C 1690.757 436.601 1691.568 418.458 1706.609 403.603 C 1739.985 370.227 1702.727 363.757 1702.727 378.369 C 1702.727 389.638 1692.779 382.494 1683.317 391.957 Z " fill="none" vector-effect="non-scaling-stroke" stroke-width="10" stroke="rgb(255,255,255)" stroke-linejoin="miter" stroke-linecap="square" stroke-miterlimit="3"/><path d=" M 1782.004 276.796 C 1737.413 321.386 1786.62 296.839 1777.152 358.321 C 1777.152 374.119 1760.814 370.776 1744.153 387.437 C 1716.709 414.881 1751.918 437.419 1751.918 414.612 C 1751.918 403.208 1760.086 401.024 1772.299 401.024 C 1783.136 401.024 1795.592 391.319 1795.592 378.702 C 1795.592 361.96 1800.121 358.644 1813.061 345.704 C 1827.781 330.984 1816.135 321.44 1805.297 321.44 C 1789.445 321.44 1790.255 303.297 1805.297 288.442 C 1838.673 255.066 1801.415 248.596 1801.415 263.208 C 1801.415 274.477 1791.467 267.333 1782.004 276.796 Z " fill="none" vector-effect="non-scaling-stroke" stroke-width="10" stroke="rgb(255,255,255)" stroke-linejoin="miter" stroke-linecap="square" stroke-miterlimit="3"/></g><g><path d=" M 1536.317 414.796 C 1491.726 459.386 1540.933 434.839 1531.464 496.321 C 1531.464 512.119 1515.126 508.776 1498.466 525.437 C 1471.021 552.881 1506.23 575.419 1506.23 552.612 C 1506.23 541.208 1514.399 539.024 1526.611 539.024 C 1537.449 539.024 1549.904 529.319 1549.904 516.702 C 1549.904 499.96 1554.433 496.644 1567.374 483.704 C 1582.093 468.984 1570.447 459.44 1559.609 459.44 C 1543.757 459.44 1544.568 441.297 1559.609 426.442 C 1592.985 393.066 1555.727 386.596 1555.727 401.208 C 1555.727 412.477 1545.779 405.333 1536.317 414.796 Z " fill="none" vector-effect="non-scaling-stroke" stroke-width="10" stroke="rgb(255,255,255)" stroke-linejoin="miter" stroke-linecap="square" stroke-miterlimit="3"/><path d=" M 1630.317 297.957 C 1585.726 342.547 1634.933 318 1625.464 379.482 C 1625.464 395.28 1609.126 391.937 1592.466 408.598 C 1565.021 436.042 1600.23 458.58 1600.23 435.773 C 1600.23 424.369 1608.399 422.185 1620.611 422.185 C 1631.449 422.185 1643.904 412.48 1643.904 399.863 C 1643.904 383.121 1648.433 379.805 1661.374 366.865 C 1676.093 352.145 1664.447 342.601 1653.609 342.601 C 1637.757 342.601 1638.568 324.458 1653.609 309.603 C 1686.985 276.227 1649.727 269.757 1649.727 284.369 C 1649.727 295.638 1639.779 288.494 1630.317 297.957 Z " fill="none" vector-effect="non-scaling-stroke" stroke-width="10" stroke="rgb(255,255,255)" stroke-linejoin="miter" stroke-linecap="square" stroke-miterlimit="3"/><path d=" M 1729.004 182.796 C 1684.413 227.386 1733.62 202.839 1724.152 264.321 C 1724.152 280.119 1707.814 276.776 1691.153 293.437 C 1663.709 320.881 1698.918 343.419 1698.918 320.612 C 1698.918 309.208 1707.086 307.024 1719.299 307.024 C 1730.136 307.024 1742.592 297.319 1742.592 284.702 C 1742.592 267.96 1747.121 264.644 1760.061 251.704 C 1774.781 236.984 1763.135 227.44 1752.297 227.44 C 1736.445 227.44 1737.255 209.297 1752.297 194.442 C 1785.673 161.066 1748.415 154.596 1748.415 169.208 C 1748.415 180.477 1738.467 173.333 1729.004 182.796 Z " fill="none" vector-effect="non-scaling-stroke" stroke-width="10" stroke="rgb(255,255,255)" stroke-linejoin="miter" stroke-linecap="square" stroke-miterlimit="3"/></g><g><path d=" M 1496.817 316.796 C 1452.226 361.386 1501.433 336.839 1491.964 398.321 C 1491.964 414.119 1475.626 410.776 1458.966 427.437 C 1431.521 454.881 1466.73 477.419 1466.73 454.612 C 1466.73 443.208 1474.899 441.024 1487.111 441.024 C 1497.949 441.024 1510.404 431.319 1510.404 418.702 C 1510.404 401.96 1514.933 398.644 1527.874 385.704 C 1542.593 370.984 1530.947 361.44 1520.109 361.44 C 1504.257 361.44 1505.068 343.297 1520.109 328.442 C 1553.485 295.066 1516.227 288.596 1516.227 303.208 C 1516.227 314.477 1506.279 307.333 1496.817 316.796 Z " fill="none" vector-effect="non-scaling-stroke" stroke-width="10" stroke="rgb(255,255,255)" stroke-linejoin="miter" stroke-linecap="square" stroke-miterlimit="3"/><path d=" M 1590.817 199.957 C 1546.226 244.547 1595.433 220 1585.964 281.482 C 1585.964 297.28 1569.626 293.937 1552.966 310.598 C 1525.521 338.042 1560.73 360.58 1560.73 337.773 C 1560.73 326.369 1568.899 324.185 1581.111 324.185 C 1591.949 324.185 1604.404 314.48 1604.404 301.863 C 1604.404 285.121 1608.933 281.805 1621.874 268.865 C 1636.593 254.145 1624.947 244.601 1614.109 244.601 C 1598.257 244.601 1599.068 226.458 1614.109 211.603 C 1647.485 178.227 1610.227 171.757 1610.227 186.369 C 1610.227 197.638 1600.279 190.494 1590.817 199.957 Z " fill="none" vector-effect="non-scaling-stroke" stroke-width="10" stroke="rgb(255,255,255)" stroke-linejoin="miter" stroke-linecap="square" stroke-miterlimit="3"/><path d=" M 1689.504 84.796 C 1644.913 129.386 1694.12 104.839 1684.652 166.321 C 1684.652 182.119 1668.314 178.776 1651.653 195.437 C 1624.209 222.881 1659.418 245.419 1659.418 222.612 C 1659.418 211.208 1667.586 209.024 1679.799 209.024 C 1690.636 209.024 1703.092 199.319 1703.092 186.702 C 1703.092 169.96 1707.621 166.644 1720.561 153.704 C 1735.281 138.984 1723.635 129.44 1712.797 129.44 C 1696.945 129.44 1697.755 111.297 1712.797 96.442 C 1746.173 63.066 1708.915 56.596 1708.915 71.208 C 1708.915 82.477 1698.967 75.333 1689.504 84.796 Z " fill="none" vector-effect="non-scaling-stroke" stroke-width="10" stroke="rgb(255,255,255)" stroke-linejoin="miter" stroke-linecap="square" stroke-miterlimit="3"/></g><g><path d=" M 1030.817 1347.796 C 986.226 1392.386 1035.433 1367.839 1025.964 1429.321 C 1025.964 1445.119 1009.627 1441.776 992.966 1458.437 C 965.521 1485.881 1000.73 1508.419 1000.73 1485.612 C 1000.73 1474.208 1008.899 1472.024 1021.111 1472.024 C 1031.949 1472.024 1044.404 1462.319 1044.404 1449.702 C 1044.404 1432.96 1048.933 1429.644 1061.874 1416.704 C 1076.593 1401.984 1064.947 1392.44 1054.109 1392.44 C 1038.257 1392.44 1039.068 1374.297 1054.109 1359.442 C 1087.485 1326.066 1050.227 1319.596 1050.227 1334.208 C 1050.227 1345.477 1040.279 1338.333 1030.817 1347.796 Z " fill="none" vector-effect="non-scaling-stroke" stroke-width="10" stroke="rgb(255,255,255)" stroke-linejoin="miter" stroke-linecap="square" stroke-miterlimit="3"/><path d=" M 1124.817 1230.957 C 1080.226 1275.547 1129.433 1251 1119.964 1312.482 C 1119.964 1328.28 1103.626 1324.937 1086.966 1341.598 C 1059.521 1369.042 1094.73 1391.58 1094.73 1368.773 C 1094.73 1357.369 1102.899 1355.185 1115.111 1355.185 C 1125.949 1355.185 1138.404 1345.48 1138.404 1332.863 C 1138.404 1316.121 1142.933 1312.805 1155.874 1299.865 C 1170.593 1285.145 1158.947 1275.601 1148.109 1275.601 C 1132.257 1275.601 1133.068 1257.458 1148.109 1242.603 C 1181.485 1209.227 1144.227 1202.757 1144.227 1217.369 C 1144.227 1228.638 1134.279 1221.494 1124.817 1230.957 Z " fill="none" vector-effect="non-scaling-stroke" stroke-width="10" stroke="rgb(255,255,255)" stroke-linejoin="miter" stroke-linecap="square" stroke-miterlimit="3"/><path d=" M 1223.504 1115.796 C 1178.913 1160.386 1228.12 1135.839 1218.652 1197.321 C 1218.652 1213.119 1202.314 1209.776 1185.653 1226.437 C 1158.209 1253.881 1193.418 1276.419 1193.418 1253.612 C 1193.418 1242.208 1201.586 1240.024 1213.799 1240.024 C 1224.636 1240.024 1237.092 1230.319 1237.092 1217.702 C 1237.092 1200.96 1241.621 1197.644 1254.561 1184.704 C 1269.281 1169.984 1257.635 1160.44 1246.797 1160.44 C 1230.945 1160.44 1231.755 1142.297 1246.797 1127.442 C 1280.173 1094.066 1242.915 1087.596 1242.915 1102.208 C 1242.915 1113.477 1232.967 1106.333 1223.504 1115.796 Z " fill="none" vector-effect="non-scaling-stroke" stroke-width="10" stroke="rgb(255,255,255)" stroke-linejoin="miter" stroke-linecap="square" stroke-miterlimit="3"/></g><g><path d=" M 877.317 626.796 C 832.726 671.386 881.933 646.839 872.464 708.321 C 872.464 724.119 856.127 720.776 839.466 737.437 C 812.021 764.881 847.23 787.419 847.23 764.612 C 847.23 753.208 855.399 751.024 867.611 751.024 C 878.449 751.024 890.904 741.319 890.904 728.702 C 890.904 711.96 895.433 708.644 908.374 695.704 C 923.093 680.984 911.447 671.44 900.609 671.44 C 884.757 671.44 885.568 653.297 900.609 638.442 C 933.985 605.066 896.727 598.596 896.727 613.208 C 896.727 624.477 886.779 617.333 877.317 626.796 Z " fill="none" vector-effect="non-scaling-stroke" stroke-width="10" stroke="rgb(255,255,255)" stroke-linejoin="miter" stroke-linecap="square" stroke-miterlimit="3"/><path d=" M 971.317 509.957 C 926.726 554.547 975.933 530 966.464 591.482 C 966.464 607.28 950.127 603.937 933.466 620.598 C 906.021 648.042 941.23 670.58 941.23 647.773 C 941.23 636.369 949.399 634.185 961.611 634.185 C 972.449 634.185 984.904 624.48 984.904 611.863 C 984.904 595.121 989.433 591.805 1002.374 578.865 C 1017.093 564.145 1005.447 554.601 994.609 554.601 C 978.757 554.601 979.568 536.458 994.609 521.603 C 1027.985 488.227 990.727 481.757 990.727 496.369 C 990.727 507.638 980.779 500.494 971.317 509.957 Z " fill="none" vector-effect="non-scaling-stroke" stroke-width="10" stroke="rgb(255,255,255)" stroke-linejoin="miter" stroke-linecap="square" stroke-miterlimit="3"/><path d=" M 1070.004 394.796 C 1025.413 439.386 1074.62 414.839 1065.152 476.321 C 1065.152 492.119 1048.814 488.776 1032.153 505.437 C 1004.709 532.881 1039.918 555.419 1039.918 532.612 C 1039.918 521.208 1048.086 519.024 1060.299 519.024 C 1071.136 519.024 1083.592 509.319 1083.592 496.702 C 1083.592 479.96 1088.121 476.644 1101.061 463.704 C 1115.781 448.984 1104.135 439.44 1093.297 439.44 C 1077.445 439.44 1078.255 421.297 1093.297 406.442 C 1126.673 373.066 1089.415 366.596 1089.415 381.208 C 1089.415 392.477 1079.467 385.333 1070.004 394.796 Z " fill="none" vector-effect="non-scaling-stroke" stroke-width="10" stroke="rgb(255,255,255)" stroke-linejoin="miter" stroke-linecap="square" stroke-miterlimit="3"/></g><g><path d=" M 850.317 508.796 C 805.726 553.386 854.933 528.839 845.464 590.321 C 845.464 606.119 829.127 602.776 812.466 619.437 C 785.021 646.881 820.23 669.419 820.23 646.612 C 820.23 635.208 828.399 633.024 840.611 633.024 C 851.449 633.024 863.904 623.319 863.904 610.702 C 863.904 593.96 868.433 590.644 881.374 577.704 C 896.093 562.984 884.447 553.44 873.609 553.44 C 857.757 553.44 858.568 535.297 873.609 520.442 C 906.985 487.066 869.727 480.596 869.727 495.208 C 869.727 506.477 859.779 499.333 850.317 508.796 Z " fill="none" vector-effect="non-scaling-stroke" stroke-width="10" stroke="rgb(255,255,255)" stroke-linejoin="miter" stroke-linecap="square" stroke-miterlimit="3"/><path d=" M 944.317 391.957 C 899.726 436.547 948.933 412 939.464 473.482 C 939.464 489.28 923.126 485.937 906.466 502.598 C 879.021 530.042 914.23 552.58 914.23 529.773 C 914.23 518.369 922.399 516.185 934.611 516.185 C 945.449 516.185 957.904 506.48 957.904 493.863 C 957.904 477.121 962.433 473.805 975.374 460.865 C 990.093 446.145 978.447 436.601 967.609 436.601 C 951.757 436.601 952.568 418.458 967.609 403.603 C 1000.985 370.227 963.727 363.757 963.727 378.369 C 963.727 389.638 953.779 382.494 944.317 391.957 Z " fill="none" vector-effect="non-scaling-stroke" stroke-width="10" stroke="rgb(255,255,255)" stroke-linejoin="miter" stroke-linecap="square" stroke-miterlimit="3"/><path d=" M 1043.004 276.796 C 998.413 321.386 1047.62 296.839 1038.152 358.321 C 1038.152 374.119 1021.814 370.776 1005.153 387.437 C 977.709 414.881 1012.918 437.419 1012.918 414.612 C 1012.918 403.208 1021.086 401.024 1033.299 401.024 C 1044.136 401.024 1056.592 391.319 1056.592 378.702 C 1056.592 361.96 1061.121 358.644 1074.061 345.704 C 1088.781 330.984 1077.135 321.44 1066.297 321.44 C 1050.445 321.44 1051.255 303.297 1066.297 288.442 C 1099.673 255.066 1062.415 248.596 1062.415 263.208 C 1062.415 274.477 1052.467 267.333 1043.004 276.796 Z " fill="none" vector-effect="non-scaling-stroke" stroke-width="10" stroke="rgb(255,255,255)" stroke-linejoin="miter" stroke-linecap="square" stroke-miterlimit="3"/></g><g><path d=" M 823.317 387.796 C 778.726 432.386 827.933 407.839 818.464 469.321 C 818.464 485.119 802.127 481.776 785.466 498.437 C 758.021 525.881 793.23 548.419 793.23 525.612 C 793.23 514.208 801.399 512.024 813.611 512.024 C 824.449 512.024 836.904 502.319 836.904 489.702 C 836.904 472.96 841.433 469.644 854.374 456.704 C 869.093 441.984 857.447 432.44 846.609 432.44 C 830.757 432.44 831.568 414.297 846.609 399.442 C 879.985 366.066 842.727 359.596 842.727 374.208 C 842.727 385.477 832.779 378.333 823.317 387.796 Z " fill="none" vector-effect="non-scaling-stroke" stroke-width="10" stroke="rgb(255,255,255)" stroke-linejoin="miter" stroke-linecap="square" stroke-miterlimit="3"/><path d=" M 917.317 270.957 C 872.726 315.547 921.933 291 912.464 352.482 C 912.464 368.28 896.126 364.937 879.466 381.598 C 852.021 409.042 887.23 431.58 887.23 408.773 C 887.23 397.369 895.399 395.185 907.611 395.185 C 918.449 395.185 930.904 385.48 930.904 372.863 C 930.904 356.121 935.433 352.805 948.374 339.865 C 963.093 325.145 951.447 315.601 940.609 315.601 C 924.757 315.601 925.568 297.458 940.609 282.603 C 973.985 249.227 936.727 242.757 936.727 257.369 C 936.727 268.638 926.779 261.494 917.317 270.957 Z " fill="none" vector-effect="non-scaling-stroke" stroke-width="10" stroke="rgb(255,255,255)" stroke-linejoin="miter" stroke-linecap="square" stroke-miterlimit="3"/><path d=" M 1016.004 155.796 C 971.413 200.386 1020.62 175.839 1011.152 237.321 C 1011.152 253.119 994.814 249.776 978.153 266.437 C 950.709 293.881 985.918 316.419 985.918 293.612 C 985.918 282.208 994.086 280.024 1006.299 280.024 C 1017.136 280.024 1029.592 270.319 1029.592 257.702 C 1029.592 240.96 1034.121 237.644 1047.061 224.704 C 1061.781 209.984 1050.135 200.44 1039.297 200.44 C 1023.445 200.44 1024.255 182.297 1039.297 167.442 C 1072.673 134.066 1035.415 127.596 1035.415 142.208 C 1035.415 153.477 1025.467 146.333 1016.004 155.796 Z " fill="none" vector-effect="non-scaling-stroke" stroke-width="10" stroke="rgb(255,255,255)" stroke-linejoin="miter" stroke-linecap="square" stroke-miterlimit="3"/></g><g><path d=" M 799.317 266.796 C 754.726 311.386 803.933 286.839 794.464 348.321 C 794.464 364.119 778.127 360.776 761.466 377.437 C 734.021 404.881 769.23 427.419 769.23 404.612 C 769.23 393.208 777.399 391.024 789.611 391.024 C 800.449 391.024 812.904 381.319 812.904 368.702 C 812.904 351.96 817.433 348.644 830.374 335.704 C 845.093 320.984 833.447 311.44 822.609 311.44 C 806.757 311.44 807.568 293.297 822.609 278.442 C 855.985 245.066 818.727 238.596 818.727 253.208 C 818.727 264.477 808.779 257.333 799.317 266.796 Z " fill="none" vector-effect="non-scaling-stroke" stroke-width="10" stroke="rgb(255,255,255)" stroke-linejoin="miter" stroke-linecap="square" stroke-miterlimit="3"/><path d=" M 893.317 149.957 C 848.726 194.547 897.933 170 888.464 231.482 C 888.464 247.28 872.126 243.937 855.466 260.598 C 828.021 288.042 863.23 310.58 863.23 287.773 C 863.23 276.369 871.399 274.185 883.611 274.185 C 894.449 274.185 906.904 264.48 906.904 251.863 C 906.904 235.121 911.433 231.805 924.374 218.865 C 939.093 204.145 927.447 194.601 916.609 194.601 C 900.757 194.601 901.568 176.458 916.609 161.603 C 949.985 128.227 912.727 121.757 912.727 136.369 C 912.727 147.638 902.779 140.494 893.317 149.957 Z " fill="none" vector-effect="non-scaling-stroke" stroke-width="10" stroke="rgb(255,255,255)" stroke-linejoin="miter" stroke-linecap="square" stroke-miterlimit="3"/><path d=" M 992.004 34.796 C 947.413 79.386 996.62 54.839 987.152 116.321 C 987.152 132.119 970.814 128.776 954.153 145.437 C 926.709 172.881 961.918 195.419 961.918 172.612 C 961.918 161.208 970.086 159.024 982.299 159.024 C 993.136 159.024 1005.592 149.319 1005.592 136.702 C 1005.592 119.96 1010.121 116.644 1023.061 103.704 C 1037.781 88.984 1026.135 79.44 1015.297 79.44 C 999.445 79.44 1000.255 61.297 1015.297 46.442 C 1048.673 13.066 1011.415 6.596 1011.415 21.208 C 1011.415 32.477 1001.467 25.333 992.004 34.796 Z " fill="none" vector-effect="non-scaling-stroke" stroke-width="10" stroke="rgb(255,255,255)" stroke-linejoin="miter" stroke-linecap="square" stroke-miterlimit="3"/></g><g><path d=" M 743.317 177.796 C 698.726 222.386 747.933 197.839 738.464 259.321 C 738.464 275.119 722.127 271.776 705.466 288.437 C 678.021 315.881 713.23 338.419 713.23 315.612 C 713.23 304.208 721.399 302.024 733.611 302.024 C 744.449 302.024 756.904 292.319 756.904 279.702 C 756.904 262.96 761.433 259.644 774.374 246.704 C 789.093 231.984 777.447 222.44 766.609 222.44 C 750.757 222.44 751.568 204.297 766.609 189.442 C 799.985 156.066 762.727 149.596 762.727 164.208 C 762.727 175.477 752.779 168.333 743.317 177.796 Z " fill="none" vector-effect="non-scaling-stroke" stroke-width="10" stroke="rgb(255,255,255)" stroke-linejoin="miter" stroke-linecap="square" stroke-miterlimit="3"/><path d=" M 837.317 60.957 C 792.726 105.547 841.933 81 832.464 142.482 C 832.464 158.28 816.126 154.937 799.466 171.598 C 772.021 199.042 807.23 221.58 807.23 198.773 C 807.23 187.369 815.399 185.185 827.611 185.185 C 838.449 185.185 850.904 175.48 850.904 162.863 C 850.904 146.121 855.433 142.805 868.374 129.865 C 883.093 115.145 871.447 105.601 860.609 105.601 C 844.757 105.601 845.568 87.458 860.609 72.603 C 893.985 39.227 856.727 32.757 856.727 47.369 C 856.727 58.638 846.779 51.494 837.317 60.957 Z " fill="none" vector-effect="non-scaling-stroke" stroke-width="10" stroke="rgb(255,255,255)" stroke-linejoin="miter" stroke-linecap="square" stroke-miterlimit="3"/><path d=" M 936.004 -54.204 C 891.413 -9.614 940.62 -34.161 931.152 27.321 C 931.152 43.119 914.814 39.776 898.153 56.437 C 870.709 83.881 905.918 106.419 905.918 83.612 C 905.918 72.208 914.086 70.024 926.299 70.024 C 937.136 70.024 949.592 60.319 949.592 47.702 C 949.592 30.96 954.121 27.644 967.061 14.704 C 981.781 -0.016 970.135 -9.56 959.297 -9.56 C 943.445 -9.56 944.255 -27.703 959.297 -42.558 C 992.673 -75.934 955.415 -82.404 955.415 -67.792 C 955.415 -56.523 945.467 -63.667 936.004 -54.204 Z " fill="none" vector-effect="non-scaling-stroke" stroke-width="10" stroke="rgb(255,255,255)" stroke-linejoin="miter" stroke-linecap="square" stroke-miterlimit="3"/></g></g></g></svg>